<svg width="190" height="190" xmlns="http://www.w3.org/2000/svg" xmlns:xlink="http://www.w3.org/1999/xlink"><defs><circle id="b" cx="90" cy="90" r="90"/><filter x="-4.2%" y="-4.2%" width="108.3%" height="108.3%" filterUnits="objectBoundingBox" id="a"><feOffset in="SourceAlpha" result="shadowOffsetOuter1"/><feGaussianBlur stdDeviation="2.5" in="shadowOffsetOuter1" result="shadowBlurOuter1"/><feColorMatrix values="0 0 0 0 0 0 0 0 0 0 0 0 0 0 0 0 0 0 0.25 0" in="shadowBlurOuter1"/></filter></defs><g transform="translate(5 5)" fill="none" fill-rule="evenodd"><use fill="#000" filter="url(#a)" xlink:href="#b"/><use fill="#FFF" xlink:href="#b"/><path d="M143.571 102.679c-1.928 1.035-4.035 1.178-6.107 1.821.107.464.429.964.857 1.143 1.143 1.5 3.215 2.536 3.608 4.428.178-.607.857-1.357.607-1.928-.607.107-1.072-.464-1.465-.964.143-1 .429-2 .929-2.858.5-.321 1.393-.214 1.571.465.358-.715.5-1.679.358-2.429l-.358.322zm-3.214 3.75c-.5-.215-1-.643-1.286-1.143.393-.429 1.072-.357 1.608-.536l.107.321c-.143.465-.107 1-.429 1.358zM41.68 147.786c.107.393.25.893-.286 1.035-.536.143-1.322 1.108-1.679.215-.107-.465-.285-1.036-.035-1.465.607-.357 1.428-.107 2 .215zm102.107-50.607c.821.607 1.143 1.607.893 2.607-.036.785-.679 1.428-1.179 1.893l-.75-.215c.929-.571 1.571-1.5 1.429-2.643-.108-.321-.429-.571-.679-.75-2.036.143-2.429 3.822-4.786 2.108-.535-.286-.357-1.143-.428-1.786.107-.679.571-1.286 1-1.822.357.108.857.036 1.107.286-.714.25-1.393 1-1.5 1.75.036.393.071.857.536 1.036 1.821-.107 2.214-3.322 4.357-2.464zm2.071-7.143c-.428-.036-.25-.107-.678-.107-.679 0-.608-.5-.608-1.108 0-.821 0-1.142.465-1.785a15.168 15.168 0 0 0 2.285-1.143c1.072-.679 3.465-2 3.75-3.393.072-.286-.142-.429-.357-.5 0 0-.035-.036-.178-.036-1.75.143-3.5-.357-5.25-.321-.786.036-1.607.25-2.322.321-.143-.178-.143-.107-.393-.357-.535-.036-11.642.429-11 .572-1.035.142-1.428.607-2.392.392-.536-.107-2.643-.428-2.929-.964V81c.25-.286 1.071-.214 1.929-.464 1.642-.536 3.214-1.215 4.785-1.929 2.822-1.25 5.679-1.607 8.643-2.321 1.464-.357 2.786-.822 3.964-1.75.572-.465 1.072-.929 1.643-1.393.5-.393 1.393-.679 1.465-1.393.071-.75-.536-.786-1.072-.75-.786.036-1.643-.071-2.428-.179-1.858-.25-3.715-.142-5.572.143-1.678.25-3.321.643-4.964.893-1.857.322-3.643.286-5.5.393-.5.036-2.572.179-2.929-.393v-.25c.357-.428 2.143-.714 2.465-.857 1.678-.643 3-1.857 4.214-3.143.964-1.036 1.786-2.178 3.107-2.714 1.464-.607 2.929-1.25 4.321-2.036a12.317 12.317 0 0 0 1.893-1.393c.429-.357 1.25-.857 1.393-1.428.536-1.822-6.428-.857-7.25-.679-2.5.607-6.286 2-8.893 2 1.179-2.643 2.893-4.786 3.929-5.893.857-.893 1.928-1.857 2.607-2.571.821-.893 2.214-1.429 2.286-2.75.143-2.893-3.929-1.643-5.393-1-1.25.571-2.464 1.286-3.786 1.678-.678.215-1.393.286-2.071.322h-2.75c1.714-2.143 1.393-5.036 2.321-7.5a5.554 5.554 0 0 1 .929-1.607c.25-.322 1.178-.822 1.214-1.25.071-.822-3.071.25-3.321.357-2.822 1.214-4.786 3.643-7.072 5.571-.286.25-.571.465-.857.679-.143.107-.25.143-.321.107a37.597 37.597 0 0 0-1.679-1.714c-.036-.179.143-.286.357-.643.857-1.464 1.214-3.179 1.5-4.822.286-1.535.5-3.107 1-4.607.786-2.285-1.464-1-2.464-.25-1.393 1-2.714 2.107-3.893 3.357a30.377 30.377 0 0 0-1.75 1.929c-.25.286-.321.607-.571.571-.179-.107-.393-.214-.572-.321-.286-.214-.536-.429-.857-.607-.607-.393-.286-1.607-.286-2.322 0-.857 0-1.714-.071-2.535-.143-1.75-.572-3.572-1.5-5.072-1.393-2.214-5.679 4.929-6.25 6-.286.572-.143.786-.857.643a18.08 18.08 0 0 0-1.357-.25c-.858-.143-1.715-.036-2.143-.893-.322-.643-.429-1.357-.643-2-.286-.928-.786-1.821-1.214-2.678-.5-.965-1.393-3.393-2.858-2.965-1.321.393-2.142 3.322-2.535 4.5a29.659 29.659 0 0 0-.75 2.536c-.107.429-.179.857-.286 1.286-.893.107-1.786.286-2.679.464l-.642-.964c-.536-.857-1.072-1.714-1.643-2.572a22.944 22.944 0 0 0-1.5-2.142c-.393-.5-1.036-1.608-1.75-1.643-.786-.036-.893.678-.929 1.25-.071.964-.393 1.857-.607 2.785-.393 1.679-.286 3.358 0 5.036.071.357-.179.607-.5.822A22.32 22.32 0 0 0 73 40.857c-.393-.357-.714-.786-1-1.214-1-1.393-1.75-2.714-2.964-3.929-.75-.75-2.643-3.071-3.822-2.107-1.035.857-.357 2.822-.321 3.964.036 1.786.071 3.429.714 5.143.286.75.643 1.465 1.072 2.143.357.536 0 .572-.393.964-.25.286-.536.572-.822.822-.893.821-3.393-1.464-4.107-2.107-1.143-1.036-2.178-2.179-3.286-3.215-.857-.785-2.928-2-4.178-1.392-.822.428-.072 1.678.178 2.25.679 1.678.75 3.571 1.536 5.214.357.714.679 1.464 1.143 2.143.179.285 1.143 1.178 1.179 1.535h-3.393c-.679-.107-1.322-.285-1.893-.571-2.786-1.286-5.143-3.357-8.357-1.821-.679.321-.893.607-.5 1.285.428.679.893 1.322 1.393 1.929 1.142 1.321 2.214 2.428 3.428 3.643l.107.107c1.143 1.321 2.929 3.607 4.036 6.428-.786.072-2.429-.535-2.857-.714-3.143-1.071-6.143-2.678-9.464-3.107-.75-.107-3.5-.607-3.393.679.107 1.25 1.107 2.321 2 3.071 1.857 1.607 4.25 1.786 6.143 3.25 2.035 1.607 4.035 3.036 6.428 4.071.607.25 1.857.536 2.107 1.215v.357c-.25.286-1.393.714-2.535.857-1.822.214-3.858-.286-5.608-.821-3.321-1.072-7-2.929-10.607-2.393-.535.071-3.071.428-3 1.321C32 70.571 33 71.143 33.5 71.5c1.536 1.036 3.179 1.857 4.786 2.75 3.107 1.75 6.464 3.607 9.964 4.286 1.036.178 5.429.321 5.393 1.714 0 .5-1.036.714-1.572.821-.392.108-.785.143-1.178.179-4.786.429-9.679-.179-14.464-.464-2.25-.143-5.893-.822-7.465 1.178-1.071 1.357 1.465 1.893 2.393 2.179 1.072.321 4 .464 3.964 1.821-.035.857-.107 1.643.072 2.572-4.464.25-3.822 3.035-3.786 4.464 1.429 30.964 26.964 55.607 58.25 55.607 31.536 0 57.214-25 58.322-56.286.107.215-.179-2.142-2.322-2.285zm3-6.786c-1.393.964-2.464 2.429-4.214 2.607l-.929-2.643c.322-.75 5.036-.607 5.143.036zm-14.214.25c.643-.036 6.75-.714 7.571 0 1.393 1.25 1.215 5.286.643 5.929-.536.607-2.286.321-3.036.321-1.357 0-2.75-.179-4.071.143-1.143.286-2.143 1.321-2.571 2.428-.679 1.822.035 4.036-.322 5.929-.143.75-.393 2.464-1.5 2.179-.964-.25-1-1.643-.928-2.429.214-2.143 1.214-4.107 1.928-6.071.857-2.358 2-4.465 1.822-7.036-.072-1-.679-1.322.464-1.393zm-.072 9.036c.429-1 1.858-.75 1.608.678.035 2.072-.822 6.393-1.215 7.429-.535 0-.821.25-1.607.071 2.036-3.5-.214-5.071 1.214-8.178zm-3.392-8.679c.214-.178.428-.286.678-.321.464.143 1.036.464 1.072 1.035.035.858.428 1.965-.358 2.465-.107.143-1.678.393-1.75-.607-.214-.75-.357-1.929.358-2.572zm-1.572 0c-.286 3.679.357 4.572 2.893 4.5.036.714-4.357 2.143-6.179 2.607 0-2.571 0-5.178-.035-7.714.821.214 3.035.643 3.321.607zm-.5-10.428c3.25-.036 6.893-.465 10.107-1.358 2.215-.035 4.929-.642 7.25-.142.036.714-.857 1.178-1.393 1.571-2.321 1.786-5.285 2.107-8.142 2.607-2.143.75-4.465 1.072-6.322 2.357-1.143.286-2.143.893-3.393.965l-.893.035v-6.071c.679-.036 2.108.107 2.786.036zm.429-10.822c1.857-.286 3.428-1.286 5.357-1.536v-.107a32.797 32.797 0 0 1 5.286-.964c.535.071 1.035.071 1.5.214l-.108.357c-2.285 1.858-5 2.929-7.535 4.25-1.5 1.322-2.679 2.822-4.179 4.179-.857.464-2.536 1.214-3.571 1.357v-3.321c0-1.5.321-2.929.785-4.25.786-.179 2.072.035 2.465-.179zm4.75-13.214c.321.107.928 0 .893.536-.215.428-.358.75-.679 1.107l-3 2.785-2.179-2.071c1.322-1.071 3.25-2.036 4.965-2.357zM127.32 54.5h-.25v-1.857h.965l2.5 2.143-.75.714s-.572.536-1.286 1.536l-1.536-1.107c.286-.429.572-.786.822-1.036l-.465-.393zm-1.678 3.607l1.643.893a19.225 19.225 0 0 0-1.536 3.75l-1.786-.536a18.73 18.73 0 0 1 1.679-4.107zm-59.25 52.536c-1-.25-.643-3.929 1.393-3.893 0 0 31.678.214 38.393.214-1.179 2.072.535 3.786.535 3.786s-34.143-.107-40.321-.107zm37.857 17.321c-1.393.465-2.786.965-4.036 1.393l-.607-1.786c1.25-.428 2.643-.928 4.036-1.392l.607 1.785zm-6.321 2.179c-.715.25-1.25.464-1.536.571a18.91 18.91 0 0 0-2.143 1.143l-.964-1.607c.928-.571 1.714-1 2.393-1.286.321-.143.892-.357 1.642-.607l.608 1.786zm-5.608 3c-.678.464-1.285.928-1.714 1.25l-.536.393-2.357-1.607 1.036-1.536 1.25.857c.357-.286.786-.571 1.25-.893l1.071 1.536zm-5.678-2.822l-1 1.608c-.893-.536-1.607-.929-2.179-1.179-.285-.107-.821-.321-1.5-.571l.643-1.75c.714.25 1.286.464 1.607.607.679.25 1.465.678 2.429 1.285zm-6.322-2.75l-.607 1.786c-1.25-.428-2.643-.928-4.035-1.393l.607-1.785c1.393.5 2.785.964 4.035 1.392zM74 125.393l-.607 1.786c-1.75-.608-3.25-1.108-4.036-1.429L70 124c.786.286 2.286.786 4 1.393zM54.857 95.75l.036-4.25h1.857l-.036 4.25h-1.857zm1.857 2.464v4.25h-1.857v-4.25h1.857zm-1.821-9.143l.036-4.25h1.857l-.036 4.25h-1.857zm.036-6.714v-4.25h1.857v4.25h-1.857zm0-6.714v-4.25h1.857v4.286l-1.857-.036zm.035-6.679v-.321c0-1.286-.107-2.572-.285-3.786l1.857-.286c.214 1.286.285 2.679.285 4.072v.321h-1.857zm-.143 35.929h1.858v4.143l-.929.107-.929-.036v-.536-3.678zm2 6.607a10.16 10.16 0 0 0 1.215 3.679l-1.643.928a12.279 12.279 0 0 1-1.429-4.357l1.857-.25zm2.465 5.5c.785.929 1.785 1.857 2.964 2.75l-1.107 1.5c-1.286-.964-2.393-2-3.286-3.036L59.286 117zm2.428-62.5v-1.857h4.179V54.5h-4.179zm6.393 12.393c.607.214.714.821 1.072 1.286.214.678.285 1.285.142 2.035.608-.178 1.036.215 1.322.679.25.321 0 .714 0 1.071-.143.286-.5.286-.714.5.107.5.785.679.571 1.25l-.214.143-4.465-.036c-.392-.285 0-.892.215-1.214 1.107-.143.107-1.571 1.035-1.964.322-.143.465-.393.858-.464-.25-1.072-.215-2.25.178-3.286zm45.036 15.571c-.322.036-.464-.357-.572-.535-.428-.965-.642-2.322-.107-3.322 0-.178.036-.393-.178-.5-.929.25-1.572 1.143-2.679.964.107.215-.214.072-.357.143l.071-.071c-.107-.143-.321.036-.392-.143.464-.714 1.5-1.321 2.071-2.036.321-.535 1.071-1.214.607-1.821-1.25.036-2.714.036-3.678-.679.535-1.214 1.678-1.964 2.964-2.035 1.25-.465 1.821 1.035 2.964.785h.857c0 1.036-.964 1.786-1.571 2.536.678 2.071.393 4.536 0 6.714zm-45.25-2.428c-.786-.75-1.036-1.893-1.572-2.822-.035-.25-.25-.607.108-.714.535-.071 1.107.143 1.5 0 .785.071 1.821-.25 2.214.5.107.429.536.821.286 1.25-.786-.214-1.5-.429-2.286-.643-.036.75.214 1.786-.25 2.429zm12.821 1.678l.107.143c2.25.179 4.822.107 7.108.286l.142.107c4-.036 7.715-.071 11.679-.393a2.41 2.41 0 0 1 1.107-.178c1.893.107 3.607-.965 5.464-1.465.25-.214.608-.214.893-.393.572.143 1.179.358 1.607.679-.107.25-.142.643-.535.536-.107.035-.25-.036-.357.035.107.322.785.358.535.858-.393.321-.928.285-1.428.464.571.214 1.107.036 1.571.357 0 .393-.464.393-.714.607h-.393l.071.143-2.892.036c-.143-.286-.608-.107-.893-.179l-.072.072c.965 1.178 2.679.75 4.107 1l-.285.285a40.883 40.883 0 0 1-6.607.536c1.107.786 2.75.536 4 .714-.215.5-.786-.035-1.179.215-1.643.285-3.536.285-5.143.321.107.429.572.393.893.464.786.143 1.571.215 2.357.393l-.178.179c-1.75.178-3.465-.143-5.143.214.393.357.928.464 1.393.643l-.143.143a35.852 35.852 0 0 1-4.357.178l-.108.143c.393.429.929.143 1.429.286l2.679.286c.035.214-.429.214-.679.285l-3.179.179c-.214.321-.464.107-.714.286.179.285.607.214.929.285l-.286.286c-1.25-.179-2.464.321-3.679 0 .393-.107.786-.286 1.25-.286l.143-.178c-.643-.286-1.428-.143-2.214-.143-1.536.5-3.036-.214-4.5.214.679.393 1.5-.036 2.214.179.75.214 1.822.035 2.572.178-.5.322-1.107.072-1.75.215-1.643.035-3.643-.036-5.322-.393.357-.465.965.285 1.393-.215.072 0 .214.036.214-.035L83.5 90c-2.214-.357-4.929.464-6.536-1.25.786.036 1.572-.107 2.393.143.072.286-.357.107-.321.393.928.214 2.143.643 3.071.071-.428-.393-1.178-.214-1.786-.357-.107-.107-.285-.036-.392-.036l.214-.357c-.25-.143-.786-.178-1.107-.107-1.465-.286-2.965.714-4.072-.643-1.857-1.464-4.214-3.286-5.464-5.357.036-.179.25-.143.357-.214.679.321 1.822.178 2.072 1.143.214.321.678.071.928.214-.214.25-.607.393-1 .393.143.464.964.214 1 .857.179.286.572-.072.572.286-.179.142-.429 0-.536.214a.73.73 0 0 0 .893.214c.071 0 .107.036.107.036.036.214-.25.107-.357.286.107.535.857.142.857.678.5.214 1.393-.107 1.75.143-.322.036-.572.214-.857.286.928.357 2.143.214 2.893-.215-.429-.142-.965.036-1.358-.178.108-.286.5-.25.608-.572-.429-.392-1 .322-1.5.143.107-.428.785-.035.892-.571-.607-.143-1.428.036-2-.107.358-.286.786-.143 1.25-.393a1.174 1.174 0 0 0-.785-.179l.357-.464c-.214-.214-.572-.036-.786-.143.036-.071-.036-.107-.036-.143.108-.143.358-.107.5-.285.036-.179-.178-.215-.285-.286-.465.107-1 .143-1.322-.143l.536-.179-.036-.035c0 .035.357.035.393-.215-.607-.464-1.678.215-1.893-.678l.857-.036v-.178c-.321-.179-.678.107-.928 0-.286-.643-.464-1.572-.036-2.215 2.572 1 5.25 1.536 8.107 1.75zM74.857 54.5v-1.857h4.179V54.5h-4.179zM85.93 75.464c.821-.571 1.785-.5 2.785-.5v.143c-.5.072-.964.072-1.428.107-2.393 1.107-3.572 3.429-5.322 5.25.107.215.393.072.536 0 .929.036 2.464.75 2.964-.393 1.072-1.5 1.607-3.714 3.5-4.5.179-.214-.071-.428 0-.571 1.715.286 3.322-.679 4.822.643l3.857 4.071c.464.215.857.643 1.178.965-1.178.464-2.75.285-4.107.392-4.321-.142-9.143.25-13.571-.285l-.179-.179c1.679-1.571 3.215-3.428 4.965-5.143zm-4.5-20.964v-1.857h4.178V54.5H81.43zm6.642 14.857c.358-.678 1.5-2.643 2.215-.821.535.535-.536 1.143.285 1.5-.357.25-.214.857-.571 1.071l-1.893-.036c-.393-.464-.107-1.142-.036-1.714zM88 54.5v-1.857h4.179V54.5H88zm2.821 17.357c-1.107.607-2.892.643-3.964-.036l.179-.214c1.214.322 2.571 0 3.785.25zm-.107 1.714c.179.286-.285.358-.5.393-.785.072-1.643.107-2.357-.143-.357-.214-.393-.642-.107-.892.75.035 1.571-.072 2.179.285.285.072.857-.25.714.357h.071zm-4.357 3.036c-.214 1.143-1.286 2.036-1.678 3.143-.215.214-.536.071-.75.143-.25-.143-.036-.393.035-.572.75-.964 1.429-2.071 2.393-2.714zM94.536 54.5v-1.857h4.178V54.5h-4.178zm6.571 0v-1.857h4.179V54.5h-4.179zm-6.321 47.214c-.643.429-1.572.322-2.393.5-3.643.286-7.679.393-10.822-1.357.679-2.036 3.25-2.321 3.25-2.321 2.858 1.428 6.929 1.928 9.858.214.392.107 1.071-.286 1.178.321-.821.5-1.393.893-3.214 1.143 1.178.715 3.678-.107 3.678-.107-.214.643-2.642 1.036-3.785 1.179.607.428 1.607.214 2.25.428zM90.07 93.18c.286.035.822-.072.965.214-1.893.107-3.965.143-5.715-.464-.285-.108-.428-.465-.107-.679 1.25.071 2.5.071 3.715.214.535-.357 1.25-.035 1.785-.035-.071.25-.821.428-.643.75zm-.535 2.892c.535.143 1.321-.071 1.607.465-.322.214-.857 0-1.072.393.429.321 1.072.214 1.5.214-.428.393-1.214-.143-1.607.536.857.214 1.643.214 2.5.214-.607.5-1.607.428-2.464.536-1.286.071-2.643-.036-3.679-.715.643-.928 1.322-1.964.893-3.214l.286-.214c.857.107 1.786 0 2.571.285l-.5.322.179.178 1.357.179c.143.107.179.214.036.321-.643 0-1.179.215-1.786.358 0 .035.072.142.179.142zM69.179 81.036c-.286-.643-.036-1.286.214-1.857.607.178 1.321.071 1.821.464.179.607.357 1.286.286 1.893-.75.035-1.5-.393-2.321-.5zM72.464 54.5h-4.178v-1.857h4.178V54.5zM72 75.571c-.893.286-2.071.108-3 .179-1.607-.357-3.571.25-5.071-.536-.286-.214.035-.464.178-.607 2.322-.357 4.429-.107 6.679 0 .25.286 1.535.107 1.214.964zm3.321 22.572h6.75c-.607.643-1.714 1.143-2.107 2.071v1.072c1.322 1.857 3.536 1.643 5.393 2.25 1.179.035 2.286.393 3.536.321 3.214.179 6.357-.536 9.25-1.571.428-.465.821-.893.75-1.572.036-1.035-.607-1.857-1.322-2.464l.215-.214c4.928-.143 9.857.178 14.821.071 0 0-3.643 5-5.643 7.429 0 0-36.428-.036-38.643-.215-.035 0 4.786-4.928 7-7.178zM109.68 81.5c.178-.643.428-1.5 1.25-1.571.535.142.107.75.142 1.142-.464.143-.892.893-1.392.429zm-2-27v-1.857h4.178V54.5h-4.178zM68 51.25c5.393-6.143 13.286-10 22.071-10 8.786 0 16.679 3.857 22.072 10H68zm-3.786 69.821a42.808 42.808 0 0 0 3.643 2l-.821 1.679c-1.393-.679-2.679-1.357-3.822-2.071l1-1.608zM109.93 124l.642 1.75c-.821.286-2.285.821-4.035 1.429l-.607-1.786c1.714-.607 3.214-1.107 4-1.393zm.607-15.464c-.75.714-1.357 1.964-2.5 1.857-.536-.214-.643-.822-.75-1.357.607-3.679 3.607-6.107 5.893-9.036.035 2.179 1 2.464 1.428 3.071-1.178 1.858-2.75 3.643-4.071 5.465zm5.214 12.535l.964 1.608a41.9 41.9 0 0 1-3.821 2.035l-.822-1.678a38.812 38.812 0 0 0 3.679-1.965zm-1.5-66.571v-1.857h4.179V54.5h-4.179zm6.429 62.571l1.428 1.215c-.893 1.035-2 2.035-3.286 3l-1.107-1.5c1.179-.893 2.179-1.786 2.965-2.715zm1.25-1.821c.607-1.107.964-2.286 1.142-3.679l1.858.215c-.179 1.643-.608 3.035-1.358 4.393l-1.642-.929zm1.25-19.393v-4.25h1.857v4.25h-1.857zm1.892 2.429v4.25h-1.857v-4.25h1.857zm-1.892-9.107l-.036-4.25H125l.036 4.25h-1.857zm-.036-6.715l-.036-4.25h1.857l.036 4.25h-1.857zm-.036-6.678l-.036-4.25h1.858l.035 4.25h-1.857zm.107 33.393v-.143-4.072h1.857V109.25l-1.857-.071zm1.715-40.75v.642h-1.858v-.642c0-1.25.108-2.536.322-3.75l1.857.321a18.005 18.005 0 0 0-.321 3.429zM125 52.607v1.857h-4.179v-1.857H125zm-1.107-10.286l.071.215c-.893 2.214-1.214 4.607-1.857 6.928-.357.715-.321 1.286-1.036 1.786h-2.928c-.536-.786-1.143-1.536-1.75-2.286-.072-.107-.143-.178-.214-.285 2.428-2.143 4.857-4.929 7.714-6.358zm-14.536-.928c1.572-1.893 3.25-3.536 5.25-4.929.107 0 .286 0 .322.179-.108 2.536-.643 5.428-1.322 7.178a4.926 4.926 0 0 1-.821 1.358c-.572-.5-1.143-.965-1.75-1.465a5.11 5.11 0 0 0-.536-.393 17.484 17.484 0 0 0-1.321-.928c-.108-.072-.179-.143-.286-.179.036-.285.357-.571.464-.821zm-6.143-9.679c.715-.035.643.893.929 1.357.5 2.215 1.036 4.465.75 6.858l-.214-.108a42.799 42.799 0 0 0-2.572-1.107l-.321-.107a32.601 32.601 0 0 0-2.643-.857c-.036 0-.107-.036-.143-.036 1.071-2.035 2.393-4.285 4.214-6zm-14.393-1.428c1.108-1.822 1.822.428 2.286 1.464.75 1.5 1.536 3.179 1.822 4.893h-.143c-.322-.036-.643-.036-.965-.072-.571-.035-1.142-.071-1.714-.071-.643 0-1.25.036-1.893.071-.285 0-.535.036-.821.072-.179 0-.357.036-.536.036.072-2.25 1.072-4.536 1.964-6.393zM77.5 32.143c.107-.143.286-.25.393-.143a61.733 61.733 0 0 1 3.893 5.5c-.786.214-1.572.429-2.357.679-.072.035-.143.035-.215.071-.643.214-1.321.464-1.964.714-.071.036-.107.036-.179.072-1.071-2.179-.035-4.715.429-6.893zm-11.214 8.571c.035-1.964-.286-3.75-.5-5.607.107-.321.393-.214.607 0 2.5 1.357 4.286 4.25 5.643 6.536-.036.036-.072.071-.107.071a47.62 47.62 0 0 0-1.715 1.143c-.178.143-.357.286-.571.429-.393.321-.822.607-1.214.928-.108.072-.215.143-.322.25-1-.857-1.5-2.428-1.821-3.75zm23.785-2.571c10.679 0 20.143 5.143 26.072 13.107h-1.964C108.5 44.214 99.82 39.714 90.07 39.714s-18.428 4.5-24.107 11.536h-1.928c5.893-7.929 15.357-13.107 26.035-13.107zM56.5 45.464c-.357-1.714-.607-2.571-1.214-3.75 0-.393.535-.214.714-.107 2.964.964 3.964 4.25 6.75 5.5.571.179 1.25.572 1.75.893-.893 1-1.75 2.071-2.5 3.214h-1.5c-2.429-.821-3.571-3.357-4-5.75zm-1.357 7.143h4.178v1.857h-4.178v-1.857zm-6.322 1.036c-1.107-.893-3.25-2.607-3.357-3.679 1.107-1.178 4.393.679 5.5 1.607l-2.143 2.072zm1.572 1.75l-.786-.679 2.286-2.071h.857V54.5h-.143l-.286.25c.25.286.536.643.822 1.071l-1.536 1.072c-.678-1-1.214-1.5-1.214-1.5zm2.393 3.393l1.678-.857a21.52 21.52 0 0 1 1.572 4.178l-1.822.464c-.357-1.357-.821-2.642-1.428-3.785zm-.965 9.643c-3.214-1.429-5.5-4.358-8.785-5.322-1.715-.571-3.179-1.714-4.286-3.143.321-.393 1.179-.214 1.714-.178 1.75.214 5.929 1.393 6.25 1.571 1.75.607 5.572 2.25 6.786 2.786.214.928.357 1.893.357 2.857v1.893c-1.143-.072-1.786-.464-2.036-.464zm-15.428 3.678A12.985 12.985 0 0 1 34 70.571c.179-.464.786-.535 1.286-.535 1.428-.107 2.643-.107 4 .214 4.25 1.036 8.428 3.5 13.107 2.857l1.428-.286v5.108c-7.5-.108-12.535-3.25-17.428-5.822zm31.5 54.5c1.25.536 13.678 4.679 15.714 5.536 2.036.857 6 3.607 6.464 4.393.465-.786 4.429-3.536 6.465-4.393 2.035-.857 14.464-5 15.714-5.536 14.214-6.214 14.357-13.821 14.214-16.571-.035-.715-.071-8.643-.107-17.572 1.072-.643 4.179-1.785 5.179-2a6.592 6.592 0 0 1-.75 1.715c-1.215 2.714-2.536 6.392-1 8.607 1.178 1.535 3.25 1.285 4.893 1.143-5.108 19.928-23.143 34.642-44.643 34.642-21.75 0-39.965-15.035-44.822-35.285 1.357 0 2.857-.286 4.107-.822 2.536-1.393 1.893-5.643 1.036-8.178-.607-1.965-2.5-4.572-2.75-5.643.036-.572 5.393.357 6.286 1.107-.036 10.679-.072 21.464-.107 22.321-.25 2.715-.107 10.322 14.107 16.536zM46.607 99.93c-.75.178-1 .178-1.678.142-.429-1.035-1.179-6.392-1.108-8-.25-2.107 1.965-1.714 2.143-.964 1.429 3-2.107 7.072.643 8.822zm7.214-17.179v3.357c-1.428.036-2.071-.071-2.464-.143-1.75.036 0-1.428-1.5-3.035.322 0 2.036-.179 3.964-.179zm-5.928.393c.178-.036.321-.143.536-.143.642.393.75 1.143.928 1.75 0 .214-.143.286-.321.393-.536 0-1.715.321-1.786-.5.071-.536.036-1.179.643-1.5zm-10.036-.536c1.429-.75 3.714-.036 8.572.107-.215.5-.322.786-.393 1.286-.429 2.893 1.857 5.893 2.464 7.071 1.5 3 1.286 3.75 1.286 6.358 0 .928-.536 2.464-1.965 1.857-1.5-1.107-1.035-2.286-.785-3.465.393-1.821 1.285-3.892-.25-5.892-.893-1.143-3.107-1.108-4.429-1.143-2-.036-3.393.143-4.357.071-.893-.071-1.143 0-1.286-.928-.107-.608-.535-4.429 1.143-5.322zM34.036 84c-1.429-.429-2.715-.643-3.857-1.357-.036-.072-.108-.107-.108-.179 1.643-.643 3.358-.643 5.215-.678.464.035 1.178-.036.893.643-.286.464-.5.892-.608 1.464-.392.464-1.071.178-1.535.107zM90 147.357c-30.964 0-56.143-24.357-56.857-55.143 0-1.178.428-1.893 1.928-1.964.929-.071 5.143-.071 6.179-.071.929 0 1.25.25 1.25 2.25 1.036 25.357 21.893 45.607 47.5 45.607 25.179 0 45.786-19.75 47.429-44.5.035-.607.071-2.25 1.071-2.179.857.072 5.857.072 6.893.072 1 .071 1.464.714 1.428 1.392-1.107 30.393-26.107 54.536-56.821 54.536zm-44.679 3.107c.286.607.786 1.107.893 1.75-.393.536-1.25.465-1.964.465-.464-.536.071-1.25.036-1.893.214-.357.643-.286 1.035-.322zm93.108-34.25c.25-.035.428-.143.75-.143-.286.5-.393 1.108-.858 1.536-1.392-1.286-3.25-1.893-4.892-2.857l-.679.071c.107-.571.429-1 .714-1.5l.286.465c1.536.928 3.071 1.75 4.679 2.428zM43.25 141.357c-2.214.357-4.25 2.179-5.071 4.286-.643 1.964-.429 4.25.714 5.928 1.178 1.679 2.964 2.893 5.036 3 2.607.286 5-1.071 6.357-3.142 1.393-2.072 1-5.036-.107-7.108-1.608-2.178-4.25-3.607-6.929-2.964zm4.821 2.429c-.107.643-.642 1.25-1.214 1.643-.428.214-.536.75-.928.857v-.357L47.5 143.5c.25-.071.429.071.571.286zm-2.321-1.429l.214.214c.072 1.215-.535 2.25-.785 3.393-.715-.143-1.643.643-2.072-.214-.536-.857-1.25-1.643-1.428-2.714 1.214-.786 2.607-.822 4.071-.679zm-1.143 5.429c0 .071 0 .143-.071.178-.072.036-.107-.071-.143-.107 0-.143.107-.143.214-.071zm-3.571-3.5l1.821 2.357c-.357.107-.643-.429-.928-.5-.608-.464-1.286-.857-1.786-1.393.107-.286.464-.821.893-.464zm-2.215 4.678c-.035-.857-.214-2.035.322-2.785 1.214.214 2.321.678 3.464 1.071l.036 1.571c-.857.536-1.822.893-2.643 1.465-.929.464-.75-.857-1.179-1.322zm2.286 3.179c-.25-.143-.25-.393-.214-.643.821-.714 1.607-1.429 2.464-2.071-.321.821-1.178 1.535-1.428 2.464-.179.321-.536.357-.822.25zm4.964 1.214c-1 .214-2.321.464-3-.321.215-1.107.429-2.215.893-3.25.465-.215 1.072-.036 1.607-.107l1.679 2.714c.107.786-.786.643-1.179.964zm2.643-1.857c-.678.036-.964-.786-1.428-1.036-.286-.393-1.072-.535-1-1.143.964.465 1.964.965 2.785 1.643.072.322-.178.429-.357.536zm.893-1.786c-1.107-.357-2.214-.643-3.286-1.071l.072-1.679c.964-.464 1.821-1.143 2.821-1.535.572 0 .5.678.75 1 .107 1.071.25 2.464-.357 3.285zm91.714-38.607c.036.893-.678 1.643-.892 2.5-.215-.036-.108-.393-.215-.571-1.393-1-2.928-1.679-4.5-2.286-.428.036-.643.429-.75.786 0 .393-.214.643-.178 1.035l-.893-.392c1.036-1.572 1.571-3.465 2.321-5.179.286.036.572.143.786.357-.5.464-.857 1.179-1 1.857.964 1.25 2.536 1.465 3.857 2.143.5 0 1.143.357 1.464-.25zm-92.035 36c.071.536.071 1.214-.215 1.643-.642-.321-1.75-.036-2-.679-.428-1.392 1.179-.964 1.715-1.535.428-.107.25.428.5.571zm56.107-129.821c.428-1.607 1.393-3.465 3.071-4.072 1-.464 2.393-.464 3.429-.035h.393c.571.392 1.178.785 1.785 1.214 1.786 1.964 2 4.607 1.322 7.071-.393 1.322-1.572 2.679-2.857 3.143-1.572.714-3.715.429-5-.75-2.036-1.536-2.465-4.143-2.143-6.571zm-57 11.5c-1.25-1.536-2.322-2.893-3.393-4.5.214-1.072 1.5-1.643 2.321-2.143 1.358-.143 2.036-.036 3.072.75.714.893 1.428 1.786 1.107 3.036-.25 1.321-1.571 2.178-2.643 2.892h-.464v-.035zm-5.429 115.321c-.214-.321-.143-.786.215-.893.678.036 1.25-.321 1.857 0-.143.643.107 1.715-.679 1.965-.857.5-1.143-.572-1.393-1.072zm94.322-2.75c-2.679-.643-5.322.786-6.929 2.929-1.107 2.071-1.5 5.035-.107 7.107 1.357 2.071 3.75 3.464 6.357 3.143 2.072-.072 3.857-1.322 5.036-3 1.143-1.643 1.357-3.965.714-5.929-.786-2.071-2.821-3.893-5.071-4.25zm3.143 3.393c-.5.536-1.179.964-1.786 1.393-.286.071-.572.643-.929.5l1.822-2.357c.393-.357.75.178.893.464zm-5.643-2.393c1.464-.143 2.893-.107 4.071.679-.178 1.035-.893 1.857-1.428 2.714-.429.857-1.322.071-2.072.214-.286-1.143-.857-2.178-.786-3.393l.215-.214zm1.393 5.5c-.036.036-.072.143-.143.107-.072-.035-.072-.107-.072-.178.107-.072.179-.072.215.071zm-3.108-4.357l1.572 2.429v.357c-.393-.107-.536-.643-.929-.857-.571-.393-1.107-.965-1.214-1.643.107-.215.321-.357.571-.286zm-2.107 6.214c-.607-.821-.464-2.214-.357-3.285.25-.322.179-1 .75-1 1 .392 1.857 1.071 2.822 1.535l.071 1.679c-1.107.428-2.214.714-3.286 1.071zm.893 1.786c-.214-.107-.428-.214-.357-.5.857-.679 1.821-1.214 2.786-1.643.035.572-.715.75-1 1.143-.465.214-.75 1.071-1.429 1zm2.607 1.857c-.393-.321-1.25-.178-1.178-.964l1.678-2.714c.536.035 1.143-.108 1.607.107.465 1 .679 2.143.893 3.25-.678.785-2 .535-3 .321zm4.965-1.214c-.286.107-.608.071-.786-.214-.25-.929-1.107-1.643-1.429-2.465.857.643 1.643 1.393 2.465 2.072 0 .214 0 .464-.25.607zm2.285-3.179c-.393.465-.214 1.75-1.214 1.357-.821-.607-1.786-.928-2.643-1.464l.036-1.571c1.143-.393 2.25-.857 3.464-1.072.536.75.393 1.893.357 2.75zm-5.464 1.822c-.036.643.536 1.357.036 1.893-.715 0-1.572.107-1.965-.465.108-.643.608-1.143.893-1.75.393.036.822-.035 1.036.322zm2.607-3c.607-.286 1.393-.572 2-.215.25.465.036 1.036-.036 1.465-.357.893-1.142-.072-1.678-.215-.536-.142-.393-.678-.286-1.035zm25.822-42.679c.928.536 1.821 1.143 2.714 1.75l-.036.214c-2.036.393-4.143.786-6.214.965l-.179-.179.786-4 .214-.357c.643.429 1.429.571 2 1.143.322-.036.393.357.715.464zM90 0C40.286 0 0 40.286 0 90s40.286 90 90 90 90-40.286 90-90S139.714 0 90 0zm0 178.75c-49.036 0-88.75-39.714-88.75-88.75S40.964 1.25 90 1.25 178.75 41 178.75 90c0 49.036-39.714 88.75-88.75 88.75zm45.5-35.536c.607-.321 1.179.036 1.857 0 .357.107.429.572.214.893-.25.5-.535 1.572-1.428 1.072-.75-.25-.5-1.358-.643-1.965zm-1.429-23.821c-.75-.393-.178-1.357-.535-2l-.215-.357c-2.357-1-3.142 2.178-4.535 3.5v.214c.25-.107.357-.036.678-.071l1.893 1.357c.786.857 2.25 1.25 2.393 2.5.464-.572.857-1.143 1.25-1.75-1.036.571-1.893-.75-2.571-1.072-.036-.535.5-.857.785-1.178 1.715 0 3.857-.072 4.822-1.786-1.107.536-2.572 1-3.965.643zm-2.285 1.643c-.572-.143-1.322-.536-1.643-1.143.286-.822.928-1.607 1.643-2.036.464-.036.928.25 1.107.643.321.964-.429 1.893-1.107 2.536zM94 80.32c1.071.143 2.107.036 3.214-.142l.179-.108c-.036-.5-.607-.392-.893-.714-1.107-1.036-2-2.571-3.286-3.321-.785-.465-1.821-1.25-2.678-.643C92.143 76.75 93.07 78.536 94 80.32zm-1.393-3.892c1.322.642 1.964 2.107 3.036 3.035-.143.5-.679.25-1.036.215-.928-.893-1.071-2.215-2.071-3.108l.071-.142zM133.5 148.07c-.286.643-1.357.358-2 .679-.286-.464-.286-1.107-.214-1.643.214-.143.071-.678.535-.536.5.536 2.108.108 1.679 1.5zM90 6.18C43.714 6.179 6.179 43.714 6.179 90S43.714 173.821 90 173.821 173.821 136.286 173.821 90 136.286 6.179 90 6.179zm79.786 90.107c-.929.321-2.072.071-3.107.035.142-.178.607-.071.607-.285 1.428-.393 2.857-1.679 3.107-3.215.107-1.428-.107-2.857-1.072-3.892-2.071-2.608-5.785-2.393-8.714-1.715-1.321.536-2.714 1.536-3.286 2.929-.428 1.321.215 2.464.965 3.428 1.071.715 2.5.536 3.785.679.608.071 1.179-.393 1.429-.893.036 1.393.036 2.929-.214 4.286-.429-1.036-1.679-.964-2.643-1.179-1.072.036-2.322-.143-3.429.179-.035-2.643-1.821-5-.785-7.607.714-2.965 3.785-4.643 6.464-5.143 3.607-.536 6.857 1.643 8.214 4.75.929 2.678.214 5.643-1.321 7.643zm-.072-19.072l.572 4.107c-.536-.071-.286-.892-.893-.857-4.143.75-8.143 1.429-12.214 2.25-.536.215-.286 1-.5 1.465h-.036c-.179-1.715-.607-3.286-.75-4.965.357.107.25.536.536.786l.5.357a128.179 128.179 0 0 0 9.25-1.714l-.036-.036c.857 0 1.928-.393 2.893-.536.464-.25.25-.785.464-1.142l.214.285zm-4.821-17.535c.607 1 .821 2.25 1.321 3.321l-.107.143a1.27 1.27 0 0 0-1.178-.464c-1.5.642-3.143.964-4.5 1.892.607 2.429 1.428 4.75 2.285 7.036l.215.179c1.571-.5 3.214-.75 4.678-1.536.286-.071.179-.536.464-.607.25 1.321.858 2.5 1 3.893-.535-.25-.714-.929-1.392-.715-1.643.143-3.143.965-4.786 1.215l-.214.214c-1.608.393-3.179 1.036-4.75 1.286-.643.714-2.358.143-2.143 1.571h-.215c-.428-1.286-.464-2.678-1.071-3.893.036-.107.143-.035.214-.071.107.357.393.536.679.75 2.107-.072 4-1 5.893-1.714-.572-2.25-1.5-4.358-2.215-6.536-.035-.214-.142-.357-.321-.5-1.571.286-3.179 1.214-4.821 1.75-.358.214-.679.643-.608 1.178-.035.072.036.179-.071.215-.679-1.036-1.107-2.465-1.5-3.643.429.893 1.5 0 2.143-.179 3.464-1.607 7.321-2.643 10.607-4.25.286-.035.107-.357.393-.535zm-2.964-7.25c.571 1.5 1.035 3.464.464 5.071-.893.393-1.679.929-2.643 1.143 1.321-1.214 1.643-3.072 1.464-4.75-.464-1.179-1.285-2.322-2.571-2.643-3.429-.571-6.714 1.036-8.536 4.071-.786 1-.428 2.429-.036 3.5.858 1.536 2.5 2.358 4.25 2.143.286 0 .608-.25.893 0-.535.572-1.321.643-1.964 1.072-1.536.928-2.571-.786-3.679-1.572-1.75-1.928-2.142-4.857-.928-7.214 1.178-2.464 3.857-4.25 6.607-4.5 2.857-.393 5.321 1.214 6.679 3.679zm-8.25-11.822h.142a61.632 61.632 0 0 0 2.465 3.322v.178c-.536.072-.929-.821-1.5-.214l-9.143 7.393c-.572.321-.107.928-.179 1.393l-.285-.108a103.513 103.513 0 0 0-2.465-3.464c.393.322.929.536 1.429.393 3.107-2.286 5.964-5 9.036-7.321.642-.358.714-1.072.5-1.572zm-21-6.786c2.178-2.428 3.75-5.071 5.714-7.607 0-.714-.536-1.285-.893-1.75 1.107.965 2.429 1.643 3.214 2.893-.607 3.857-1.464 7.679-2.071 11.5.214.357.607.107.893 0 3.214-1.036 6.285-2.393 9.464-3.464l.536.036c.857.785 1.678 1.571 2.214 2.535-.536 0-.964-.893-1.571-.321-3.072 2.75-6.108 6.071-8.929 9.036l.214.714c-.964-1.107-2.107-2.072-2.964-3.143.464.25.964.464 1.5.321a54.062 54.062 0 0 0 6.214-6.25l-.107-.142c-1.071.214-2.036.714-3.107.892-.536.393-1.286.536-1.929.786-1.714.464-3.285 1.322-5.035 1.643l-.107-.179c.714-3.821 1.428-7.678 2.142-11.5 0-.142-.214-.214-.321-.107-2 2.393-3.893 4.929-5.714 7.357-.072.572.107 1.036.428 1.429l-.321-.071c-.786-.75-1.714-1.393-2.643-1.965l-.036-.178c1.5.321 2.429-1.465 3.215-2.465zm-1.572-13.678c.036.643-.5 1.214-.714 1.821l-.5.679c.036-.893-.357-2.214-1.429-2.822-1.357-.285-2.785-2.535-4.107-.821-.428 1.321-1.428 2.464-1.5 3.893 1.322 1.036 2.929 2.143 4.679 1.893.107-.143.214-.179.393-.143l-.036.321-1.643 2.465c.286-1.143-1.036-1.5-1.714-2.036a12.294 12.294 0 0 0-2.465-1c-.928 1.5-1.678 3.143-2.321 4.786-.071.642.536.964.786 1.464-.465 0-.893-.393-1.393-.607-.893-.607-2-.857-2.857-1.429.535.036 1.25.036 1.5-.607 1.571-3.821 3.535-7.464 4.964-11.357-.107-.393-.643-.464-.5-.893 3.036 1.393 5.929 2.786 8.857 4.393zm-27.821-4.25c1.178-2.179 3.393-4.036 5.964-4.107 2.75-.322 5 .857 6.929 2.25 1.892 1.928 2.964 4.785 1.892 7.5-.892 2.214-2.892 4.143-5.25 4.607-.035.393-.285-.036-.464.178-1.178.25-2.536.286-3.678-.035l.035-.036c-2.071-.357-4.071-1.786-5.178-3.607-1.072-2-1.286-4.714-.25-6.75zM84.32 9.036a26.375 26.375 0 0 1 3.786.178c-.071.286-.571.572-.393.965.929 1.821 1.929 3.464 3.429 5.071h.214c1.25-1.464 2.214-3.071 3.036-4.75.214-.571-.536-.75-.786-1a31.56 31.56 0 0 1 3.679 0c-.036.321-.536.25-.786.464-1.893 2.179-3.071 4.465-4.714 6.822l.035 5.75c.215.643.965.321 1.215.714-1.572.071-3.215-.179-4.786.143.071-.429.607-.143.857-.464l.322-.536c-.286-2.464.571-5.357-1.179-7.322-.929-2.071-2.429-3.607-3.75-5.535-.143-.072-.464 0-.464-.286-.036-.143.178-.179.285-.214zm-8.5 1.214c2.286-.357 4.608-.643 6.858-1.071l.5-.5.178.178c.036.822.429 1.5.429 2.357-.429.215-.536-.464-.893-.678-1.107-.215-2.214.143-3.25.357-.429.464-.143 1.143-.143 1.714l1.393 9.643c.214.464.286 1.036.857 1.25.179-.036.286.071.429.107v.179c-1.393.143-2.786.143-4.108.464.036-.429.715-.393.75-.893l-1.678-11.464c-.536-1.25-2.072-.214-2.964-.214-.822.035-1.072.857-1.286 1.464h-.214c.107-.964-.465-1.714-.322-2.607 1.107.25 2.393-.179 3.464-.286zm-8.928 1.893c1.286-.607 2.821-.643 4.178-1.072l.036.036c-.286.107-.607.464-.714.786 1 4.143 2 8.25 3.107 12.321.214.643.893.465 1.393.572 0 .393-.5.285-.714.464-1.322.214-2.465.714-3.786.786v-.143c1.75-1.036.036-2.964-.036-4.393l-.071-.714c-.857-2.715-1.107-5.75-2.393-8.286-.357-.071-.679-.321-1-.214v-.143zm-10.357 4.536c1.285-1.643 3.178-2.643 5.321-2.179.429.071.822-.071 1-.464l.072-.357c.75.714.857 1.964 1.428 2.892.286.536.822 1.108.607 1.679-1.285-1.607-3.214-2.821-5.25-2.393-.857.25-1.714.929-1.785 1.893.107 1.536 1.785 1.964 2.857 2.536 2.643.785 6.357.535 7.428 3.75.25 1.285-.285 2.428-1.035 3.393-1.715 1.285-3.929 1.678-6.036 1.642l-.393.358c-.321-.143-.286-.608-.429-.893-.428-1.107-1.178-2.072-1.5-3.215l.108-.107c1.321 1.286 2.857 3.143 5 2.715.857-.179 1.821-.536 2.178-1.465.214-.393.072-.893-.107-1.214-2.036-2.643-5.893-1.429-8.321-3.321-.465-.179-.858-.643-1.108-1.072-.964-1.25-.714-3.036-.035-4.178zm-4.393 4.142l1 1c.428.965.786 1.822.464 2.929-.25.821-.786 1.607-1.357 2.25l.071.214c2.108 1.679 4.358 2.965 7.072 3.215.357.178.607-.322.893 0-.715 1.464-2.607.928-4.072 1.035C54 31 52.43 30.214 50.536 29.071c-.429.143-.822.465-1.179.786l.214.536c1.143 1.321 1.893 2.678 3.108 3.964l.571-.036c-1.143.786-1.821 1.358-2.964 2.25-.072-.357.393-.892 0-1.285-2.572-3.393-5.215-6.857-7.893-10.107l-.929.035c3.215-2.035 6.286-6.25 10.679-4.393zM32.107 33.43C34.18 31.25 36.286 29.07 38.536 27c.75.214 1.357 1.036 1.785 1.643-2.107-.214-3.785 1.5-5.071 3.143l.071.357 3.5 3.571c1.179-.678 2.25-2.035 3.072-3.107-.036-.286-.143-.5-.107-.786.607.786 1.321 1.679 2.143 2.429v.179c-.358-.108-.786-.465-1.25-.286-.965.893-1.858 1.536-2.643 2.536v.285l3.285 3.215c.965.428 1.75-.393 2.393-1 1.25-1 1.715-2.572 2.572-3.608l.393 2.215c-2.286 2.035-5 4.143-7.036 6.178-.393-.285.214-.678.214-1.071L41.68 42c-2.75-2.857-5.393-5.786-8.358-8.429-.464-.178-.857.072-1.25.215v-.357h.036zm-8.143 10.214c.357-.464.572-1.107 1.072-1.357.285.428-.536.928.214 1.178l2.679.643-.036.036 7.143 1.428c.107-.071.25-.107.321-.214-1.428-2.786-3.214-5.857-4.857-8.571-.464-.322-1 .143-1.5.178.714-.964 1.714-1.821 2.571-2.714.286.393-.178.714-.178 1.071l.214.715 6.643 11.678.179.643h-.786l.036-.036c-4.643-1.035-9.608-1.785-14.286-2.821a9.708 9.708 0 0 1-.893.393c.179-.786 1-1.5 1.464-2.25zm-2.678 3.893h.143c.107.321-.215.678 0 1.035 3.428 2.179 7 4.322 10.357 6.179.285.214.678.143 1 .071.214-.071.285-.357.5-.357v.286c-.715 1.071-1.179 2.321-1.965 3.286-.25-.286.25-.5 0-.786-2.178-1.786-4.75-3-7-4.571-1.321-.643-2.5-1.465-3.857-2.036-.607-.286-.857.5-1.285.393.714-1.179 1.25-2.465 2.107-3.5zM13.214 64.75c1-.536 2.107-.857 3.179-1.214 3.178-1.179 6.428-1.893 9.5-3.322-.036-.285-.429-.464-.679-.643-1.75-.964-3.714-1.464-5.464-2.428-1.107-.143-2.357-1.643-3.5-.464.464-1.036 1.036-2.108 1.5-3.108l.214 1.072.465.393c1.642.535 3.107 1.643 4.821 2.035.321.143.75.358 1.107.5 1.929.893 3.822 1.858 5.786 2.643.286.179.321.5.178.715-1.107.642-2.428 1.035-3.678 1.392-1.822.608-3.536 1.358-5.393 1.75-.821.465-1.786.715-2.643.893-.536.357-1.25.429-1.678.857l.285.322c2.893.893 5.643 2.071 8.643 2.714.464-.036.679-.5 1-.786-.214.965-.678 2.322-.928 3.465-.143-.393-.286-1.215-.929-1.215-.214-.357-.536-.285-.857-.357l.036-.035c-1.5-.286-2.822-.929-4.25-1.393-2.108-.643-4-1.25-6.108-1.857-.75-.143-1.178.607-1.642 1 .107-.893.678-1.929 1.035-2.929zM9.786 79.179c.25.142.107.678.535.785 3.608.357 7.429 1.036 11.072.5.75-.143 1.357-.714 1.786-1.393.285-.714.392-1.464.107-2.214-.536-1.357-1.929-1.928-3.107-2.357-.072-.357-.536-.036-.715-.286-2.571-.571-5.107-1.607-7.714-1.75l-.786.5c.107-.928.357-2 .679-2.893.214.143.214.643.607.679 3.536.964 7.107 1.714 10.5 3.071 1.179.786 2.357 2.036 2.321 3.572.108 1.821-.214 3.643-1.75 4.821-1.535 1.322-3.571.786-5.5.893l.036-.036c-2.786-.142-5.321-.392-8.071-.642l-.465.464c.143-1.179.143-2.5.465-3.714zm.464 23.071c-.5.071-.429-.571-.5-.893-.464-3.25-.536-6.25-.571-9.464l2.392-.143.036-.107.214.107c-1.785 1.393-1.464 4-1.321 6.179.071.214.214.428.393.5 1.393-.072 2.75-.25 4.071-.5.607-.643.036-1.465.072-2.215-.179-.785.214-2.143-.965-2.321.465-.322 1.25-.072 1.858-.214.321-.036.678-.215 1-.072-.036.214-.5.286-.5.572.107 1.285-.108 2.821.607 3.928l4.571-.5c.643-.357.5-1.143.679-1.643-.143-2.071-.036-4.893-2.393-6.071-.036-.286.357-.143.428-.107l2.75 1.571c.608 3.072.179 6.429.786 9.429l-.107.357c-.393-.25-.357-.893-.893-1.143-2.107-.036-3.893.679-5.964.679-.5.214-1.179.285-1.75.321-1.536.143-3.036.464-4.464.714-.429.179-.429.643-.429 1.036zm2.857 12.821c1.072.25 2.143-.428 3.214-.678.715-.214 1.5-.393 2.072-.893-.286-2.036-1.179-3.893-1.643-5.929-.107-.357-.5-.571-.821-.392l-3.572.892c-.607.179-.25.893-.75 1.036-.643-1.071-.536-2.607-.928-3.821.428-.215.357.393.714.393 4.214-.929 8.214-2 12.393-3 .25-.143.178-.536.285-.715l.179.036c.071 1.321.75 2.464.714 3.786-.321.035-.428-.715-.928-.643l-5.322 1.286-.5.5c.465 2 1 3.964 1.643 5.857l.286.285c1.893-.571 3.75-1.285 5.643-1.964.428-.25.321-.678.5-1.036.357.393.393 1.108.607 1.643.107.715.571 1.322.714 1.965-.464-.143-.928-.536-1.428-.215-3.786 1.143-7.465 2.679-11.143 4.072-.25.214-.536.5-.465.893h-.178c-.5-1.108-.964-2.179-1.286-3.358zM31 121.43c-.464.25-.643-.465-1-.536-3.464 1.571-6.857 3.536-10.321 5.178l-.179.358c.75 1.285 1.179 2.714 2.179 3.892.321.072.571.322.928.215-.643.428-1.464.893-2.286 1.143-2-3.679-3.857-7.393-5.75-11.108l.072-.214c.678-.286 1.393-.714 2.107-.857-.964 1.464.75 2.679 1.107 4 .214.536.679.179.929.036 3.321-1.822 6.821-3.393 10.178-5.25.036-.286-.107-.607.107-.786.643 1.214 1.179 2.464 1.893 3.607v.322H31zm20.643 29.357c-1 2.893-3.893 4.821-6.964 4.821-3.286 0-6.286-2.143-7.358-5.071-.714-2.465-.535-5.322 1.108-7.286 1.892-2.571 4.964-3.25 7.928-2.714a8.37 8.37 0 0 1 4.286 3c1.464 1.964 1.893 4.964 1 7.25zm20.571 5.714l-2.964 11c-.036.464.571.536.714.964-1.25-.285-2.643-.464-3.857-.964v-.107c.393-.072.964-.036 1.107-.572 1.072-3.25 1.822-6.678 2.679-10.035-.214-.286-.607-.322-.857-.286v-.143c1.214-.571 2.321-1.357 3.535-1.964l.108.107c-.143.643-.036 1.464-.465 2zm13.179 6.214c-.464.179-1.179.036-1.322.643 1.536 1.286 3.108 3 2.643 5.179-.357 1-1.321 1.821-2.321 2.25-2.036.714-4.75 0-6.393-1.143-.714-.25-1.179-.822-1.75-1.357-.786-1.036-.893-2.572-.357-3.715 1-1.464 2.786-1.5 4.178-2.214-.285-.643-.928-1.143-1.321-1.714-.714-.643-.679-1.964-.321-2.822 1.5-2 4.571-2.357 6.857-1.214 1.107.643 2.643 1.822 2.535 3.322.143 1.5-1.428 2.142-2.428 2.785zM90 153.571c-35.107 0-63.571-28.464-63.571-63.571S54.893 26.429 90 26.429 153.571 54.893 153.571 90 125.107 153.571 90 153.571zm3.571 17.072v-.179c.358.036.679-.214.822-.535l.107-.715c-.321-3.321-.25-6.857-.714-10.035-.286-.358-.607-.465-.965-.536.572-.714 1.608-1.393 2.179-2.107.929-.715.607.643.857 1.071.25 4 .572 8.179.857 12.179.25.285.572.607 1 .571-1.321.179-2.75.286-4.143.286zm14.393-5.357c.286.714.107 1.893 1.107 2.107-.607.678-1.25 1.393-2.107 1.643-1.25-1.036-1.321-2.607-1.428-4.179.071-2.464 1.107-4.536 1.75-6.75.143-.536.857-1.143.464-1.678-1.393.678-2.929.75-4.5 1-1 .285-1.893.964-2.357 1.928.25-.786.357-1.75.607-2.607.857-.071 1.464-.893 2.179-1.357 1.321-.964 3.214-.929 4.892-.893.429-.143.786-.393 1.108-.679-1.393 3.393-2.143 7.643-1.715 11.465zm35.25-14.715c-1.107 2.929-4.107 5.072-7.357 5.072-3.071-.036-5.964-1.929-6.964-4.822-.893-2.285-.429-5.285 1-7.214a8.37 8.37 0 0 1 4.286-3c2.964-.536 6.035.143 7.928 2.714 1.643 1.929 1.822 4.786 1.107 7.25zm21.5-30c-4.393 1.5-8.464 2.608-12.785 4.286l-.108.107c.929.965 2.322 1.322 3.429 1.929 1.643.75 3.214 1.678 4.964 2.25.5.107.536-.572 1-.572-.428 1.179-1.321 2.143-1.785 3.286h-.286c0-.393.25-.857 0-1.25-2.572-1.643-5.393-2.643-8.072-4l.036-.071a66.572 66.572 0 0 1-4.25-2.072c-.036-.393.286-.714.607-.857 1.357-.321 2.643-.893 4-1.214l-.035-.036c3.214-.928 6.642-2.178 9.964-3.286l.178-.178c-1.5-1.357-3.785-1.393-5.535-2.464l-3.429-1.286c-.357.071-.714.321-.928.607.035-.821.678-1.643.928-2.536.036-.107.072-.357.286-.321.036 1.286 1.607 1 2.357 1.678 2.786 1.215 5.679 2.322 8.536 3.429 1.214.214 2.107-.643 2.785-1.5l.108.107c-.572 1.357-.786 2.964-1.965 3.964zm-.928-10.75a279.083 279.083 0 0 0-10.036 1.75l-.607.465c-.179-.393.25-.715.357-1.072.357-.893.429-1.893.75-2.75.357.143.107.893.714.893l3.929-.643c.786-.428.536-1.535.893-2.25l.714-3.714c-1.25-.857-2.464-2.071-3.964-1.929-.357.286-.465.608-.786.858.214-1.322.464-2.893.607-4.25h.214c-.285 1.892 1.893 1.928 2.822 2.964 3.214 2.107 6.714 4.143 9.821 6.178.607.643 1.143 1.393 1.322 2.25-2.036.5-4.5.858-6.75 1.25zm-94.393 25.536c-.107.5-.429 1-.75 1.322.071-1.072-.393-1.929-1.322-2.465-.285-.178-.75-.178-1.035 0-.393.215-.322.75-.179 1.072.714 1.25 1.822 2.464 1.429 4-.536.821-1.643.643-2.429.535-1-.321-2-1.285-2.321-2.357.107-.393.393-.714.714-1 0 1.107.5 2.25 1.571 2.715.286.178.75.142 1-.036.572-.393.286-1.072.215-1.607-.786-1.036-1.75-2.286-1.25-3.572.464-.571 1.25-.571 1.893-.464.964.321 1.785 1.179 2.464 1.857zm15.071-46.143c2.572.072 5.179-.357 7.857-.285.215.142.536.142.679.392-.25.286-.536-.107-.821.108-2.108.357-4.965.107-7.143 0l-.572-.215zm-7.643 49.072c-.107.357-.214.714-.428 1-.214-.929-1.179-1.607-2.036-1.786-.964-.214-1.786.571-2.357 1.25-.357.643-.571 1.536-.321 2.321.285.75.892 1.393 1.642 1.608.822.035 1.679-.179 2.215-1h.178c-.035.571-.321 1.107-.607 1.5-.928.392-2 .214-2.893-.143-.928-.643-1.607-1.572-1.785-2.679-.143-1.5.75-2.643 1.892-3.321 1.572-.5 3.286.143 4.5 1.25zM81.607 88.5l.107-.179c1.072.072 2.072.072 3.179.215v.071c-1.143.214-2.179.107-3.286-.107zm-2.107 50l2.107.393c-.178.214-.643.464-.75.821-.357 1.607-.857 3.215-.893 4.965l.5.464c-.607-.036-1.5-.214-2.357-.393.929-.75.929-2.036 1.286-3.143.143-1.036.821-2.178.107-3.107zm-37.536-37.929l.072-.214c-1.857-1.107-4.107-1.464-6.143-2.321l-.679-.536c.072.571-.035 1.571.393 1.893.286-.036.107-.357.393-.464.286-.215.571.107.893.107.786.25.5 1.25.821 1.857.036.643.607 1.393.072 1.893-.322.393-.929.607-1.322.5.107.464.215 1.071.322 1.607.035.25.214.571.428.571 1.107-1.928 3.072-3.143 4.75-4.893zm-3.428-.857c.607.036 1.178.25 1.643.5-.108.536-.75 1.072-1.215 1.357-.393-.392-.643-1.214-.428-1.857zm5.107 10.857c1-.964.428-2.535.107-3.678-.429-.822-.679-1.75-1.036-2.5-.071.286-.071.571-.214.821-1.107.679-2.429.893-3.571 1.429-.5.214-1.143.143-1.643-.072.143.75.535 1.465.785 2.108.108-.786.965-.822 1.5-1.072.322-.178.715.036.822.393 1.107 1.107-.572 1.893-.607 2.964-.357 1.322.107 2.715.678 3.679-.678-1.607-.035-3.322.929-4.536.678.214 1.428.893 2.25.464zm-1.286-3.892c.679-.215.714.535.893.892-.036.572.286 1.179-.036 1.643-.357.215-.821.5-1.25.215-.643-.572-.75-1.322-1.035-2.036.285-.393.928-.607 1.428-.714zm.857 11.428c-.143.322-.678.536-.428.964-.572-.535-.822-1.321-1.143-2 .75.143 1.428-.357 2.107-.678.857-.679 1.964-.964 2.607-1.857-.25-.75-.571-1.5-1.286-2.036.25-.214.75-.071 1.108-.107.928 1.75 1.964 3.5 2.928 5.143-.25.178-.357.357-.607.571A17.052 17.052 0 0 0 47.179 116c-1.5.321-2.715 1.25-3.965 2.107zm35.179-30.393c-.786.107-1.607.286-2.464.036.714-.679 1.571.143 2.464-.036zM58.32 128.43c.286.75-.642.857-.928 1.25.071-.679.286-1.536-.107-2.215-.286-.464-.75-.75-1.286-.857-.286.107-.607.214-.714.572-.072 1.535 1.214 3.571-.465 4.714-1.464.571-2.5-.679-3.321-1.679l-.393-1.357c.322-.25.643-.571 1-.678-.5.75-.036 1.571.214 2.214.536.464.965.964 1.715.678 1.643-1.535-1.465-4.214 1.178-5.285 1.572-.107 2.5 1.464 3.107 2.643zm-21.571-34c-.143-.465-.036-1 .286-1.358.464-.642 1.107-.035 1.571.179.214.357.286.857.179 1.286-.215.428-.679.428-1.107.464-.393 0-.715-.214-.929-.571zm12.464 27.285c-.107.036-.035.179-.035.286.5.464.714 1.357 1.464 1.5-.214.321-.607.5-.929.679-.071-.643-.607-1.215-1.071-1.715-.679-.035-1.143.643-1.607 1.072-.036 1.25 1.25 2.035 2.143 2.893l.285.035-.035.036c.214.036.357.143.607.143-.215.143-.607.214-.893.143a4.213 4.213 0 0 1-.714.143c-1.036-1.536-2.322-2.786-3.215-4.465.786.393 1.572-.393 2.215-.785.892-.643 1.857-1.429 2.678-2.322v-.464c1.25 1.25 2.143 2.857 3.393 4.178-.071.465-.643.608-.893.858.25-1.072-1-2-1.678-2.893-.715-.465-1.179.5-1.715.678zm11.429 10.465c.286.285.214.857.071 1.178-.214.286-.643.393-1.071.357-.357-.214-.536-.607-.607-1-.036-.393.214-.821.607-.893.393-.035.75.108 1 .358zm49.428 10c-.607.392-1.357.642-2 1-.107-.143.143-.322.215-.5-.607-1.822-1.036-3.5-1.786-5.286L106 137c.536-.321 1.214-.643 1.893-.75-.679 1.321.428 2.607.714 3.857.393.75.464 1.929 1.464 2.072zm-21.464-61.75c.357-.215-.036-.643.107-1 .036-1.036.357-1.893.572-2.822.178-.178-.036-.678.357-.678.536 1.464-.107 2.892 0 4.357l3.286.035c.214-.035.25-.25.214-.464-.429-.893-1.179-1.643-1.5-2.607-.75-.643-1.25-2.643-2.464-1.643-1.5 1.179-2.715 2.893-3.143 4.75.821.214 1.821.143 2.571.072zm2-3.036h.214c.393.643.929 1.321.893 2.071-.393.215-.75.143-1.107 0-.143-.678-.071-1.357 0-2.071zm-2.214.107c-.036.714-.107 1.75-.679 2.25l-.393-.036a3.515 3.515 0 0 1 1.072-2.214zm28.107 60.429c-1.643-.929-3.179-2.179-4.679-3.072-.392 2.072-.142 4-.285 6.286l-.322.571c.572-.107 1.072-.464 1.607-.678-.321-.179-.607-.607-.5-1.072.679-.821 1.893-1.143 2.893-1.535.429.214.786.714.536 1.214l.107-.179c.786-.035 1.464-.714 2-1.178-.464.178-.964-.072-1.357-.357zm-4.214.571c.035-.679-.143-1.25.143-1.821.642.142 1.285.607 1.642 1.142-.535.25-1.214 1.215-1.785.679zm11.035-11.786c-.035 2.465 1.143 4.75 1.322 7.286-1.964-.75-3.822-1.893-5.786-2.714l-.893.035c.536-.428 1.179-1.178 1.893-1.464 0 .179-.25.393 0 .572 1.143.607 2.286 1.5 3.607 1.785.286-.428-.071-1-.107-1.5-.25-.964-.321-2.285-1.321-2.643.214-.464.857-.892 1.285-1.357zm8.25-1.071c1.358 1.536-1.142 2.25-1.607 3.428-.535.429-.821.893-1.393 1.25.215-1.178-1.142-1.607-1.607-2.464-.928-.714-1.5-1.857-2.678-2.036l3-3.25c.428.108.857.429 1.071.786-.714-.25-1.321.143-1.821.643-.429.321-.679.75-.75 1.25.357.536.928 1.179 1.393 1.357.285-.321 1.107-.75 1.107-1.464.357.143.678.393.893.75-.608.178-1 .607-1.286 1.143-.143.714.75 1.107 1.214 1.5 1-.036 1.393-1.143 2.072-1.715.214-.357.25-.785.392-1.178zM85.393 158.32c.428.643.464 1.358.286 2.108-.393 1.035-1.5 1.535-2.465 1.821-1.178.214-2.071-1-2.643-1.929-.214-.714-.321-1.642.108-2.321.392-.536 1-1.107 1.75-1.143 1.285-.25 2.25.536 2.964 1.464zm33.214-24c.072.465-.107.786-.393 1.072-.25.214-.643.214-.928.036-.429-.25-.357-.786-.286-1.179.214-.071.321-.429.607-.393.322.107.75.072 1 .464zm22.893-40.25c-.071-.392.036-.892.5-.964.393-.036.75.036.964.357.036.322.143.857-.285 1-.393.107-1.036.215-1.179-.393zm-38.393 44.572c-.357.393-.036.893 0 1.321.322 1.215.393 2.536.964 3.643.108.25.358.429.679.357-.071.322-.5.215-.75.322-.571 0-1 .25-1.607.214.428-.214.643-.893.393-1.429l-.893-3.678c-.393-.536-1-.25-1.5-.214-.393.107-.857.214-1 .678-.286-.286-.179-.75-.107-1.143a75.485 75.485 0 0 0 4.893-1.25.876.876 0 0 1 .571-.214c.286.321.286.821.429 1.179-.643-.465-1.5-.108-2.072.214zm-13.393 5.893c-.035.428-.535 1-.821 1.5-1.714-.036-3.643-.357-5.429-.393.393-.179.857-.75.857-1.322.036-1.678.572-3.142.215-4.785l-.357-.322c1.607.215 3.178.465 4.892.465l-.035.035c.428-.071.357.322.428.643-.143.214.036.536-.178.679-.536-1.357-2.286-.822-3.393-1.036-.607.429-.429 1.357-.429 2 .786.214 1.857.571 2.607.107.143.464-.035.893-.071 1.322-.679-.679-1.643-.572-2.536-.572-.321.572-.357 1.429-.178 1.964l.357.286c1.286.214 3.036.607 4.071-.571zm8.215-4.286c.142 1.857.357 3.429.357 5.321H98c-1.464-1.607-3-3.107-4.429-4.642l-.285.285c.285 1.607-.643 3.572.928 4.536-.607 0-1.428.214-2.143.036.286-.143.572-.393.679-.75 0-1.572 0-3.143-.214-4.607-.286-.536-.857-.286-1.179-.608 1.107-.035 1.822-.464 2.857-.071 1 1.036 1.893 2.214 3 3.071.215 0 .322-.25.286-.464-.143-1 .179-2.178-.714-2.857l-.215-.107c.572-.107 1.108-.286 1.715-.286-.429.322-.215.822-.357 1.143zM84.32 167.714c-.071.893-.607 1.786-1.428 2.215-1.429.357-2.643-.143-3.857-.643-1.072-.965-1.179-2.429-.786-3.786.357-1.25 1.5-1.821 2.643-2.25l.678.214c1.25 1.143 2.822 2.393 2.75 4.25z" fill="#00274C" fill-rule="nonzero"/><path d="M36.214 82.429c-.285.464-.5.892-.607 1.464-.428.464-1.107.214-1.571.143-1.429-.429-2.715-.643-3.857-1.357-.036-.072-.108-.108-.108-.179 1.643-.643 3.358-.643 5.215-.679.5 0 1.214-.035.928.608zm6.179-57.179l-.929.036c3.215-2.107 6.286-6.322 10.679-4.429l1 1c.428.964.786 1.822.464 2.929-.25.821-.786 1.607-1.357 2.25l.071.214c2.108 1.679 4.358 2.964 7.072 3.214.357.179.607-.321.893 0-.715 1.465-2.607.929-4.072 1.036-2.214-.464-3.785-1.25-5.678-2.393-.429.143-.822.464-1.179.786l.214.536c1.143 1.321 1.893 2.678 3.108 3.964l.571-.036c-1.143.786-1.821 1.357-2.964 2.25-.072-.357.393-.893 0-1.286-2.572-3.357-5.215-6.821-7.893-10.071zM45 24.286c1.107 1.643 2.143 2.964 3.393 4.5h.5c1.036-.715 2.393-1.536 2.643-2.893.285-1.214-.393-2.143-1.107-3.036-1.036-.786-1.715-.893-3.072-.75-.857.536-2.143 1.107-2.357 2.179zm-31.214 42.5c2.107.607 4 1.214 6.107 1.857 1.428.464 2.75 1.107 4.25 1.393l-.036.035c.286.036.643 0 .857.358.679.035.786.821.929 1.214.25-1.179.75-2.5.928-3.464-.321.285-.535.714-1 .785-3-.643-5.785-1.821-8.642-2.714l-.286-.321c.393-.429 1.143-.5 1.678-.858.858-.178 1.822-.464 2.643-.892 1.857-.393 3.607-1.143 5.393-1.75 1.25-.393 2.572-.75 3.679-1.393.143-.215.107-.536-.179-.715-2-.785-3.857-1.75-5.786-2.642-.357-.143-.785-.358-1.107-.5-1.714-.393-3.143-1.5-4.821-2.036l-.464-.393-.215-1.071c-.464 1-1.035 2.071-1.5 3.107 1.143-1.179 2.393.285 3.5.464 1.75.964 3.715 1.464 5.465 2.429.25.142.607.321.678.642-3.071 1.429-6.321 2.143-9.5 3.322-1.071.357-2.178.643-3.178 1.214-.358 1-.929 2.072-1.072 3.036.5-.5.929-1.25 1.679-1.107zM37.714 48.32l-.035.036h.785l-.178-.643-6.643-11.643-.214-.714c0-.393.464-.714.178-1.071-.857.893-1.821 1.75-2.571 2.714.5-.036 1.035-.5 1.5-.179a169.803 169.803 0 0 1 4.857 8.572c-.072.143-.214.143-.322.214L27.93 44.18l.035-.036-2.678-.643c-.75-.25.071-.75-.215-1.179-.5.25-.714.893-1.071 1.358-.464.75-1.286 1.464-1.429 2.25.286-.143.608-.25.893-.393 4.643 1 9.572 1.785 14.25 2.785zm-4.393-14.857c2.965 2.643 5.608 5.572 8.358 8.429l.178.893c-.036.393-.607.785-.214 1.071 2.071-2.036 4.75-4.143 7.036-6.178l-.393-2.215c-.857 1.036-1.357 2.607-2.572 3.607-.643.608-1.428 1.429-2.393 1l-3.285-3.214v-.286c.785-.964 1.678-1.642 2.643-2.535.464-.215.928.178 1.25.285v-.178c-.822-.75-1.536-1.643-2.143-2.429-.036.286.035.536.107.786-.822 1.071-1.893 2.429-3.072 3.107l-3.5-3.571-.071-.357c1.321-1.643 2.964-3.358 5.071-3.143-.428-.607-1.035-1.429-1.785-1.643-2.25 2.071-4.357 4.25-6.429 6.428v.286c.357-.071.786-.321 1.214-.143zM17.857 83.071l-.036.036c1.929-.107 3.965.429 5.5-.893 1.5-1.214 1.858-3 1.75-4.821.036-1.536-1.178-2.786-2.321-3.572-3.357-1.357-6.964-2.107-10.5-3.071-.393-.036-.429-.536-.607-.679-.322.893-.536 1.965-.679 2.893l.786-.5c2.607.143 5.143 1.179 7.714 1.75.179.25.643-.071.715.286 1.178.429 2.607 1 3.107 2.357.285.75.178 1.5-.107 2.214-.429.715-1.036 1.25-1.786 1.393-3.607.536-7.429-.143-11.072-.5-.428-.107-.285-.643-.535-.785-.322 1.214-.286 2.535-.465 3.714l.465-.464c2.75.25 5.25.5 8.071.642zm-7.143 18.143c1.429-.25 2.929-.571 4.465-.714.535-.036 1.25-.107 1.75-.321 2.071 0 3.857-.715 5.964-.679.536.214.5.893.893 1.143l.107-.357c-.607-3-.179-6.322-.75-9.429l-2.786-1.571c-.107-.036-.5-.179-.428.107 2.357 1.214 2.25 4 2.392 6.071-.178.5-.035 1.286-.678 1.643l-4.572.5c-.714-1.143-.5-2.643-.607-3.928 0-.286.465-.358.5-.572-.321-.143-.678.036-1 .072-.607.142-1.393-.108-1.857.214 1.179.143.786 1.536.964 2.321-.035.715.536 1.572-.071 2.215-1.321.25-2.679.428-4.071.5-.215-.072-.322-.286-.393-.5-.107-2.143-.465-4.75 1.321-6.179l-.214-.107-.036.107-2.393.143c.036 3.25.107 6.214.572 9.464.071.322 0 .964.5.893-.036-.393-.036-.821.428-1.036zm77.072 58.679c.178 1.571-1.393 2.178-2.393 2.821-.464.179-1.179.036-1.322.643 1.536 1.286 3.108 3 2.643 5.179-.357 1-1.321 1.821-2.321 2.25-2.036.714-4.75 0-6.393-1.143-.714-.25-1.179-.822-1.75-1.357-.786-1.036-.893-2.572-.357-3.715 1-1.464 2.786-1.5 4.178-2.214-.285-.643-.928-1.143-1.321-1.714-.714-.643-.679-1.964-.321-2.822 1.5-2 4.571-2.357 6.857-1.214 1.071.643 2.607 1.786 2.5 3.286zm-6.25 3.607l-.679-.214c-1.107.428-2.25 1-2.643 2.25-.428 1.357-.285 2.821.786 3.785 1.25.465 2.429 1 3.857.643.822-.428 1.357-1.321 1.429-2.214.107-1.893-1.465-3.143-2.75-4.25zm3.857-5.179c-.679-.928-1.679-1.714-2.964-1.464-.75.036-1.322.572-1.75 1.143-.465.643-.322 1.571-.108 2.321.572.929 1.429 2.143 2.643 1.929.965-.25 2.072-.786 2.465-1.821.178-.75.107-1.5-.286-2.108zm-16.322-1.964v.143c.25-.036.608.036.858.286-.858 3.357-1.608 6.75-2.679 10.035-.143.536-.714.5-1.107.572v.107c1.214.464 2.607.679 3.857.964-.143-.393-.75-.464-.714-.964l2.964-11c.429-.536.321-1.357.5-2.036l-.107-.107c-1.214.643-2.357 1.429-3.572 2zm-54-38.821c3.679-1.393 7.358-2.893 11.143-4.072.5-.285.965.107 1.429.215-.143-.679-.607-1.25-.714-1.965-.215-.535-.25-1.25-.608-1.643-.178.358-.071.786-.5 1.036-1.892.643-3.714 1.393-5.642 1.964l-.286-.285a61.442 61.442 0 0 1-1.643-5.857l.5-.5 5.321-1.25c.5-.108.608.642.929.642.036-1.285-.643-2.464-.714-3.785l-.179-.036c-.107.179-.036.571-.286.714-4.178 1-8.178 2.072-12.392 3-.358 0-.286-.607-.715-.393.393 1.215.286 2.75.929 3.822.5-.143.143-.857.75-1.036l3.571-.893c.322-.178.715.036.822.393.464 2 1.321 3.857 1.643 5.929-.572.535-1.358.678-2.072.893-1.071.25-2.143.928-3.214.678.357 1.143.786 2.25 1.321 3.322h.179c-.143-.393.178-.679.428-.893zM29 118.32c-3.357 1.858-6.857 3.429-10.179 5.25-.25.143-.75.465-.928-.035-.357-1.322-2.072-2.536-1.107-4-.715.107-1.429.571-2.107.857l-.072.214c1.893 3.714 3.786 7.429 5.75 11.107.822-.25 1.643-.714 2.286-1.143-.357.108-.607-.142-.929-.214-1-1.178-1.428-2.571-2.178-3.893l.178-.357c3.465-1.643 6.857-3.607 10.322-5.178.357.071.571.785 1 .535v-.285c-.715-1.143-1.25-2.393-1.893-3.608-.25.143-.107.465-.143.75zm-8.536-67.678c1.322.571 2.536 1.393 3.857 2.036 2.286 1.535 4.822 2.785 7 4.571.25.286-.25.5 0 .786.786-.965 1.25-2.215 1.965-3.286v-.286c-.215 0-.286.286-.5.357-.322.072-.75.143-1-.071-3.357-1.893-6.929-4-10.357-6.179-.215-.357.107-.714 0-1.035h-.108c-.857 1.035-1.428 2.321-2.107 3.5.429.107.643-.679 1.25-.393zm131.25 14.071c.357 1.215.822 2.607 1.5 3.643.107-.036.036-.143.072-.214-.107-.536.214-.964.607-1.179 1.643-.535 3.25-1.464 4.821-1.75.179.143.286.286.322.5.75 2.179 1.678 4.286 2.214 6.536-1.893.714-3.786 1.643-5.893 1.714-.286-.214-.536-.393-.678-.75-.072.036-.215-.035-.215.072.607 1.214.607 2.607 1.072 3.893h.214c-.214-1.465 1.5-.893 2.143-1.572 1.571-.25 3.143-.928 4.75-1.286l.214-.214c1.643-.25 3.143-1.071 4.786-1.214.678-.214.857.464 1.393.714-.143-1.393-.75-2.571-1-3.893-.286.036-.143.536-.465.607-1.464.786-3.107 1.036-4.678 1.536l-.214-.178c-.858-2.322-1.679-4.608-2.286-7.036 1.357-.964 3-1.286 4.5-1.893.428-.107.857.107 1.178.464l.108-.143c-.536-1.071-.75-2.321-1.322-3.321-.286.179-.107.5-.393.643-3.285 1.607-7.143 2.643-10.607 4.25-.643.071-1.678.964-2.143.071zm3.465-16c-2.715.286-5.393 2.036-6.608 4.5-1.178 2.357-.785 5.286.929 7.215 1.143.785 2.143 2.5 3.679 1.571.607-.429 1.428-.5 1.964-1.071-.286-.25-.607 0-.893 0-1.75.214-3.393-.572-4.25-2.143-.357-1.072-.75-2.5.036-3.5 1.821-3.036 5.071-4.643 8.535-4.072 1.286.322 2.143 1.465 2.572 2.643.178 1.643-.143 3.5-1.464 4.75.928-.214 1.75-.75 2.642-1.143.608-1.607.108-3.571-.464-5.071-1.286-2.429-3.75-4-6.678-3.679zm-12.429.393a103.514 103.514 0 0 1 2.464 3.464l.286.108c.071-.465-.393-1.072.179-1.393l9.142-7.393c.572-.607.965.286 1.5.214v-.178a61.631 61.631 0 0 1-2.464-3.322h-.143c.215.536.143 1.214-.464 1.572-3.071 2.321-5.929 5.035-9.036 7.321-.535.143-1.071-.071-1.464-.393zM129.5 36.321l.036.179a15.365 15.365 0 0 1 2.643 1.964l.321.072c-.357-.393-.536-.857-.429-1.429 1.822-2.428 3.715-5 5.715-7.357.107-.143.321-.036.321.107-.714 3.822-1.428 7.679-2.143 11.5l.107.179c1.75-.286 3.322-1.179 5.036-1.643.643-.25 1.393-.393 1.929-.786 1.107-.214 2.071-.678 3.107-.893l.107.143c-1.821 2.143-4.036 4.393-6.214 6.25-.536.143-1.072-.071-1.5-.321.857 1.107 2 2.071 2.964 3.143l-.214-.715c2.821-2.964 5.857-6.25 8.928-9.035.607-.572 1.036.321 1.572.321-.536-.964-1.393-1.75-2.215-2.536l-.535-.035c-3.179 1.107-6.286 2.428-9.465 3.5-.285.107-.678.357-.892 0 .607-3.822 1.464-7.643 2.071-11.5-.786-1.25-2.143-1.929-3.214-2.893.357.464.893 1.035.893 1.75-1.965 2.535-3.536 5.178-5.715 7.607-.821.928-1.75 2.714-3.214 2.428zm36.607 42.286l.036.036a184.412 184.412 0 0 1-9.25 1.714l-.5-.357c-.286-.214-.179-.679-.536-.786.143 1.679.572 3.25.75 4.965h.036c.214-.465-.036-1.25.5-1.465 4.107-.821 8.071-1.5 12.214-2.25.607-.035.357.786.893.857l-.571-4.107-.286-.285c-.214.357 0 .892-.464 1.142-.893.179-1.965.536-2.822.536zm-3.178 5.357c-2.715.5-5.75 2.179-6.465 5.143-1.035 2.607.786 5 .786 7.607 1.107-.285 2.393-.143 3.429-.178.964.214 2.214.143 2.642 1.178.25-1.357.25-2.893.215-4.285-.25.5-.822.964-1.429.892-1.286-.142-2.714.036-3.786-.678-.75-.964-1.392-2.107-.964-3.429.572-1.393 1.964-2.393 3.286-2.928 2.928-.715 6.643-.893 8.714 1.714.929 1.036 1.179 2.464 1.072 3.893-.286 1.536-1.679 2.821-3.108 3.214 0 .214-.464.107-.607.286 1.036.036 2.215.286 3.107-.036 1.536-2.036 2.25-5 1.358-7.607-1.393-3.143-4.643-5.357-8.25-4.786zm-40.143-67.321c-1.429 3.893-3.393 7.536-4.965 11.357-.25.643-1 .643-1.5.607.858.572 1.965.822 2.858 1.429.5.214.928.607 1.392.607-.285-.464-.857-.822-.785-1.464.643-1.643 1.357-3.286 2.321-4.786.857.25 1.679.571 2.464 1 .679.536 2 .893 1.715 2.036l1.643-2.465.035-.321c-.178-.036-.285.036-.393.143-1.785.214-3.392-.857-4.714-1.929.072-1.393 1.107-2.571 1.5-3.893 1.322-1.714 2.75.536 4.107.822 1.072.607 1.429 1.928 1.429 2.821l.5-.678c.214-.608.786-1.143.714-1.822-2.928-1.607-5.786-2.964-8.786-4.393-.178.465.393.572.465.929zm-54.857-4.179c1.285 2.572 1.5 5.572 2.392 8.286l.072.714c.071 1.465 1.786 3.357.036 4.393V26c1.321-.036 2.464-.571 3.785-.786.215-.178.715-.035.715-.464-.5-.107-1.179.036-1.393-.571-1.143-4.072-2.143-8.179-3.107-12.322.107-.357.428-.714.714-.786l-.036-.035c-1.357.428-2.893.464-4.178 1.071v.107c.321-.071.642.179 1 .25zm5 .679c.214-.643.464-1.464 1.285-1.464.857 0 2.429-1.036 2.965.214l1.678 11.464c-.036.5-.678.464-.75.893 1.322-.286 2.714-.286 4.107-.464v-.179c-.178-.036-.285-.143-.428-.107-.572-.214-.607-.786-.857-1.25l-1.393-9.643c0-.607-.286-1.25.143-1.714 1.035-.214 2.142-.572 3.25-.357.357.214.464.893.892.678-.035-.857-.428-1.535-.428-2.357l-.179-.178-.5.5c-2.25.464-4.571.714-6.857 1.071-1.107.107-2.393.536-3.428.286-.108.893.464 1.643.321 2.607h.179zM57.643 21.82c2.393 1.893 6.286.715 8.321 3.322.215.357.357.857.107 1.214-.357.964-1.321 1.286-2.178 1.464-2.143.429-3.679-1.428-5-2.714l-.107.107c.357 1.143 1.107 2.143 1.5 3.215.143.285.107.785.428.892l.393-.357c2.072.036 4.322-.321 6.036-1.643.75-.964 1.286-2.071 1.036-3.392-1.072-3.215-4.75-2.965-7.429-3.75-1.071-.536-2.75-.965-2.857-2.536.071-.964.928-1.643 1.786-1.893 2.035-.429 3.964.786 5.25 2.393.214-.572-.322-1.143-.608-1.679-.607-.893-.678-2.143-1.428-2.893l-.072.358c-.178.392-.571.535-1 .464-2.142-.464-4 .536-5.321 2.178-.679 1.143-.929 2.965 0 4.072.286.536.714 1 1.143 1.178zm45.928.786c-1.107-1.964-1.321-4.643-.285-6.714 1.178-2.179 3.393-4.036 5.964-4.107 2.75-.322 5 .857 6.929 2.25 1.892 1.928 2.964 4.785 1.892 7.5-.892 2.214-2.892 4.143-5.25 4.607-.035.393-.285-.036-.464.178-1.178.25-2.536.286-3.678-.035l.035-.036c-2.071-.357-4.035-1.786-5.143-3.643zm4 1.286c1.286 1.178 3.429 1.464 5 .75 1.286-.464 2.465-1.822 2.858-3.143.642-2.464.428-5.107-1.322-7.071-.607-.465-1.214-.822-1.786-1.215h-.392c-1.036-.428-2.465-.428-3.429.036-1.679.571-2.643 2.464-3.071 4.071-.358 2.429.071 5 2.142 6.572zM84.536 9.57c1.321 1.929 2.821 3.465 3.75 5.536 1.75 1.964.857 4.822 1.178 7.322l-.321.535c-.214.322-.786.036-.857.465 1.571-.286 3.214-.036 4.785-.143-.25-.393-1.035-.072-1.214-.715l-.071-5.785c1.643-2.357 2.821-4.643 4.75-6.857.214-.215.75-.143.75-.465a31.56 31.56 0 0 0-3.679 0c.25.25.964.429.786 1-.857 1.643-1.822 3.25-3.036 4.75h-.214c-1.5-1.607-2.464-3.214-3.429-5.071-.178-.393.322-.643.393-.964A26.375 26.375 0 0 0 84.321 9c-.107.036-.285.071-.214.286-.036.285.286.214.429.285zM48.82 53.643l2.143-2.036c-1.107-.928-4.393-2.821-5.5-1.607.107 1.036 2.25 2.786 3.357 3.643zm80.786 30.25c-.286.036-2.5-.393-3.286-.607 0 2.535 0 5.143.036 7.714 1.786-.464 6.179-1.893 6.179-2.607-2.572.071-3.215-.822-2.929-4.5zm16.822-11.929c-2.322-.535-5.036.072-7.25.143-3.215.893-6.858 1.322-10.108 1.357-.678.072-2.107-.107-2.821 0v6.072l.893-.036c1.25-.071 2.25-.714 3.393-.964 1.857-1.286 4.178-1.607 6.321-2.357 2.857-.5 5.822-.822 8.143-2.608.571-.428 1.464-.857 1.429-1.607zm-30.25-23.25c.678.822 1.357 1.679 1.964 2.572h2.928c.75-.465.679-1.072 1.036-1.786.643-2.321.964-4.75 1.857-6.929l-.071-.214c-2.857 1.393-5.286 4.179-7.714 6.357zM51.32 85.964c.429.036 1.072.179 2.465.143V82.75c-1.929 0-3.643.179-4 .179 1.535 1.607-.215 3.071 1.535 3.035zM134.5 51.036c.357-.357.5-.679.679-1.107.035-.536-.572-.429-.893-.536-1.715.321-3.643 1.25-4.965 2.357l2.179 2.071 3-2.785zM90 153.57c-35.107 0-63.571-28.464-63.571-63.571S54.893 26.429 90 26.429 153.571 54.893 153.571 90 125.107 153.571 90 153.571zm61.036-63.535c0-2.25-.143-4.465-.357-6.643.214-.286.392-.572.464-.857.071-.286-.143-.429-.357-.5 0 0-.036-.036-.179-.036h-.107a60.755 60.755 0 0 0-2.036-9.571c.179-.179.286-.358.322-.608.071-.607-.322-.714-.75-.75a60.902 60.902 0 0 0-4.536-10.5c.107-.142.214-.285.25-.428.143-.5-.321-.786-1.036-.964a58.684 58.684 0 0 0-6.285-8.786c0-.036.035-.107.035-.143.072-1.321-.75-1.786-1.785-1.821a63.104 63.104 0 0 0-7.929-7.179c.107-.107.179-.214.179-.321.035-.322-.429-.358-1-.25a63.197 63.197 0 0 0-9.215-5.572c-.035-.5-.393-.536-.857-.393-3.571-1.643-7.286-3-11.178-3.928-.036-.036-.036-.072-.072-.107-.321-.536-.821-.5-1.357-.215a60.057 60.057 0 0 0-12.464-1.428c-.429-.429-.893-.715-1.465-.536-.285.071-.535.286-.75.536a59.406 59.406 0 0 0-10.464 1.143 1.174 1.174 0 0 0-.571-.25c-.465-.036-.679.214-.822.535a63.54 63.54 0 0 0-10.071 3.179c-.429-.179-.857-.179-1.214.107-.179.179-.322.357-.393.607-3.465 1.572-6.786 3.429-9.857 5.607-.358-.035-.715 0-1 .143-.322.179-.393.464-.358.822a64.268 64.268 0 0 0-8.535 7.642c-.25.072-.5.179-.75.286-.643.286-.857.572-.536 1.179-2.25 2.607-4.321 5.393-6.107 8.357-.393.107-.679.321-.643.75 0 .071.036.178.036.25a59.695 59.695 0 0 0-4.679 10.036c-.25.178-.428.357-.428.571 0 .107.035.25.107.357a60.446 60.446 0 0 0-2.679 11.357c-.143.107-.286.25-.428.393-.465.572-.25 1 .214 1.322-.214 2.142-.357 4.321-.357 6.535C29.036 123.68 56.357 151 90.07 151c33.643.036 60.965-27.286 60.965-60.964zm-7.322-6.857l.929 2.642c1.75-.142 2.821-1.642 4.214-2.607-.107-.571-4.821-.714-5.143-.035zm-47 86.571c-.285-4-.607-8.179-.857-12.179-.25-.428.107-1.785-.857-1.071-.571.714-1.607 1.393-2.179 2.107.358.107.679.214.965.536.464 3.178.393 6.75.714 10.036l-.107.714c-.107.321-.464.607-.822.536v.178c1.393-.036 2.822-.107 4.108-.321-.393.071-.715-.25-.965-.536zm72.5-63.393c.607.643 1.143 1.393 1.322 2.25-2.072.464-4.536.822-6.786 1.214a279.082 279.082 0 0 0-10.036 1.75l-.607.465c-.178-.393.25-.715.357-1.072.357-.893.429-1.893.75-2.75.357.143.107.893.715.893l3.928-.643c.786-.428.536-1.535.893-2.25l.714-3.714c-1.25-.857-2.464-2.071-3.964-1.929-.357.286-.464.608-.786.858.215-1.322.465-2.893.607-4.25h.215c-.286 1.892 1.893 1.928 2.821 2.964 3.286 2.143 6.786 4.178 9.857 6.214zm-1.821.5c-.893-.643-1.822-1.214-2.714-1.75-.286-.107-.358-.464-.679-.464-.607-.536-1.357-.714-2-1.143l-.214.357-.786 4 .179.179c2.071-.143 4.178-.536 6.214-.965v-.214zM178.75 90c0 49.036-39.75 88.75-88.75 88.75-49.036.036-88.75-39.714-88.75-88.75C1.25 41 40.964 1.25 90 1.25S178.75 41 178.75 90zm-4.929 0c0-46.286-37.535-83.821-83.821-83.821C43.714 6.214 6.179 43.714 6.179 90S43.714 173.821 90 173.821 173.821 136.286 173.821 90zm-65.25 64.5c-1.714-.036-3.571-.036-4.892.893-.715.464-1.322 1.286-2.179 1.357-.286.857-.357 1.821-.607 2.607.428-.964 1.357-1.643 2.357-1.928 1.571-.25 3.107-.322 4.5-1 .429.535-.286 1.142-.464 1.678-.643 2.214-1.679 4.322-1.75 6.75.071 1.572.178 3.143 1.428 4.179.857-.215 1.5-.965 2.107-1.643-1-.214-.821-1.393-1.107-2.107-.428-3.822.322-8.072 1.75-11.5a2.947 2.947 0 0 1-1.143.714zm55.215-36.5c-2.857-1.143-5.715-2.214-8.536-3.429-.75-.678-2.321-.392-2.357-1.678-.214-.036-.25.214-.286.321-.25.893-.893 1.715-.928 2.536.214-.286.571-.536.928-.607l3.429 1.286c1.75 1.071 4 1.142 5.535 2.464l-.178.178c-3.322 1.108-6.75 2.358-9.964 3.286l.035.036c-1.357.357-2.643.893-4 1.214-.321.143-.643.464-.607.857a38.881 38.881 0 0 0 4.25 2.072l-.036.071c2.679 1.357 5.536 2.357 8.072 4 .25.393 0 .857 0 1.25h.286c.464-1.143 1.357-2.107 1.785-3.286-.428 0-.5.679-1 .572-1.75-.572-3.321-1.5-4.964-2.25-1.107-.607-2.5-.964-3.429-1.929l.108-.107c4.321-1.678 8.392-2.786 12.785-4.286 1.179-1.035 1.393-2.642 1.965-4l-.108-.107c-.678.893-1.571 1.75-2.785 1.536zM134.07 64.821c2.572-1.321 5.25-2.392 7.536-4.25l.107-.357c-.464-.143-1-.143-1.5-.214-1.821.214-3.535.5-5.285.964v.107c-1.929.215-3.5 1.25-5.358 1.536-.428.179-1.678 0-2.5.143-.464 1.321-.785 2.75-.785 4.25v3.321c1.035-.142 2.714-.892 3.571-1.357 1.536-1.285 2.714-2.785 4.214-4.143zM56 41.643c-.179-.107-.714-.286-.714.107.607 1.179.893 2.036 1.214 3.75.429 2.393 1.571 4.893 4 5.786H62a36.26 36.26 0 0 1 2.5-3.179c-.5-.357-1.179-.714-1.75-.893-2.786-1.321-3.786-4.607-6.75-5.571zm58.607-5.143c-2 1.393-3.678 3-5.25 4.929-.107.214-.428.535-.428.785a31.035 31.035 0 0 1 3.857 3c.321-.428.607-.857.821-1.357.714-1.75 1.25-4.643 1.322-7.178-.036-.179-.215-.179-.322-.179zM39.286 70.25c-1.357-.321-2.607-.321-4-.214-.5.035-1.107.107-1.286.535a15.918 15.918 0 0 0 2.393 1.536c4.893 2.572 9.928 5.714 17.464 5.822V72.82l-1.428.286c-4.715.643-8.893-1.821-13.143-2.857zm7.393-8.857c-.322-.214-4.5-1.357-6.25-1.572-.536-.035-1.393-.214-1.715.179 1.107 1.429 2.572 2.571 4.286 3.143 3.321.964 5.607 3.893 8.786 5.321.25 0 .893.393 2 .465v-1.893c0-1-.143-1.929-.357-2.857-1.179-.536-4.965-2.179-6.75-2.786zm46.25-24.714c-.25-1.715-1.072-3.393-1.822-4.893-.464-1.036-1.178-3.25-2.286-1.465-.892 1.822-1.892 4.108-2 6.393a32.5 32.5 0 0 1 3.25-.143c.965-.035 1.893 0 2.858.108zm11.25-3.608c-.286-.464-.215-1.392-.929-1.357-1.821 1.715-3.143 3.965-4.214 6 2.071.572 4.035 1.286 5.928 2.215.25-2.393-.285-4.643-.785-6.858zm-22.393 4.5c-1.143-1.821-2.5-3.785-3.893-5.5-.107-.142-.286 0-.393.143-.429 2.143-1.5 4.715-.393 6.929 1.5-.679 3.072-1.179 4.679-1.572zM72.07 41.68c-1.392-2.286-3.142-5.179-5.642-6.536-.215-.214-.5-.322-.608 0 .215 1.821.536 3.643.5 5.607.322 1.321.822 2.893 1.893 3.75a28.176 28.176 0 0 1 3.857-2.821zm18-.393c-8.785 0-16.678 3.857-22.071 10h44.143c-5.393-6.143-13.286-10-22.072-10zM70.464 78.25c.25-.429-.178-.821-.285-1.25-.393-.75-1.429-.429-2.215-.5-.428.143-.964-.071-1.5 0-.357.143-.107.464-.107.714.536.965.786 2.072 1.572 2.822.464-.643.214-1.715.285-2.429.715.214 1.465.429 2.25.643zm-4.607-4.393c-.393-.286 0-.893.214-1.214 1.108-.143.108-1.572 1.036-1.964.322-.143.464-.393.857-.465a5.439 5.439 0 0 1 .179-3.285c.607.214.714.821 1.071 1.285.215.679.286 1.286.143 2.036.607-.179 1.036.214 1.322.679.25.321 0 .714 0 1.071-.143.286-.5.286-.715.5.107.5.786.679.572 1.25l-.215.143-4.464-.036zM63.93 75.25c-.286-.214.035-.464.178-.607 2.322-.357 4.429-.107 6.679 0 .25.25 1.5.071 1.214.964-.893.286-2.071.107-3 .179-1.607-.357-3.571.25-5.071-.536zm7.607 6.321c-.786.036-1.5-.428-2.322-.5-.285-.642-.035-1.285.215-1.857.607.179 1.321.072 1.821.465.179.571.357 1.25.286 1.892zm16.607-10.5c-.464-.464-.143-1.142-.072-1.714.358-.678 1.5-2.643 2.215-.821.535.535-.536 1.143.285 1.5-.357.25-.214.857-.571 1.071l-1.857-.036zM94.679 81c1.357-.143 2.964.071 4.107-.393-.322-.321-.715-.75-1.179-.964L93.75 75.57c-1.5-1.321-3.107-.357-4.821-.642-.072.142.178.392 0 .571-1.893.786-2.429 3-3.5 4.5-.5 1.143-2.072.429-2.965.393-.143.071-.428.214-.535 0 1.75-1.822 2.928-4.143 5.321-5.25.464-.036.929-.036 1.429-.107v-.143c-1 0-1.965-.072-2.786.5-1.75 1.714-3.286 3.571-5 5.071l.178.179c4.465.607 9.25.25 13.608.357zm-1.465-4.964c1.322.785 2.179 2.285 3.286 3.321.286.322.857.214.893.714l-.179.108c-1.107.142-2.143.25-3.214.142-.929-1.785-1.857-3.571-3.464-4.928.857-.607 1.893.178 2.678.643zm-4-.393c1.179-1 1.715 1 2.465 1.643.321.964 1.071 1.714 1.5 2.607.035.214-.036.393-.215.464l-3.285-.036c-.108-1.464.535-2.892 0-4.357-.429 0-.215.5-.358.679-.214.964-.535 1.821-.571 2.821-.107.393.286.786-.107 1-.75.072-1.75.143-2.536-.035.357-1.858 1.607-3.608 3.107-4.786zm7.072 24.5c-.215.643-2.643 1.036-3.786 1.178.643.393 1.643.179 2.286.393-.643.429-1.572.322-2.393.5-3.643.286-7.679.393-10.822-1.357.679-2.036 3.25-2.321 3.25-2.321 2.858 1.428 6.929 1.928 9.858.214.392.107 1.071-.286 1.178.321-.821.5-1.393.893-3.214 1.143 1.178.75 3.643-.071 3.643-.071zM90.643 73.57h.036c.178.286-.286.358-.5.393-.786.072-1.643.107-2.358-.143-.357-.214-.392-.642-.107-.892.75.035 1.572-.072 2.179.285.321.072.928-.25.75.357zm-3.786-1.75l.179-.214c1.214.357 2.571.036 3.785.286-1.107.571-2.892.607-3.964-.072zm26.286 3.893c.678 2.143.393 4.607 0 6.786-.322.036-.464-.357-.572-.536-.428-.964-.642-2.321-.107-3.321 0-.179.036-.393-.178-.5-.929.25-1.572 1.143-2.679.964.107.214-.214.072-.357.143l.071-.071c-.107-.143-.321.035-.392-.143.464-.715 1.5-1.322 2.071-2.036.321-.536 1.071-1.214.607-1.821-1.25.035-2.714.035-3.678-.679.535-1.214 1.678-1.964 2.964-2.036 1.25-.464 1.821 1.036 2.964.786h.857c0 .964-.964 1.714-1.571 2.464zm-6.822 4.5c-1.821.5-3.535 1.572-5.464 1.465a2.338 2.338 0 0 0-1.107.178c-3.964.286-7.679.357-11.679.393l-.142-.107c-2.286-.179-4.822-.107-7.108-.286l-.107-.143c-2.893-.214-5.571-.785-8.178-1.75-.429.643-.215 1.572.035 2.215.286.107.608-.179.929 0v.178l-.857.036c.25.893 1.321.214 1.893.678-.036.25-.393.25-.393.215l.036.035-.536.179c.321.286.893.214 1.321.143.107.036.322.107.286.286-.143.178-.357.142-.5.285.036.036.071.036.036.143.214.143.607-.071.785.143l-.357.464c.286-.035.572.036.786.179-.429.25-.857.143-1.25.393.571.143 1.429-.036 2 .107-.107.536-.786.143-.893.571.536.215 1.107-.5 1.5-.143-.107.322-.5.286-.607.572.357.214.929.036 1.357.178-.786.465-2 .572-2.893.215.286-.107.536-.286.857-.286-.357-.25-1.25.036-1.75-.143 0-.536-.714-.143-.857-.678.107-.215.357-.108.357-.286-.035-.036-.035-.036-.107-.036-.285.143-.678.036-.893-.214.108-.214.358-.107.536-.214 0-.358-.393 0-.571-.286-.036-.643-.857-.393-1-.857.357 0 .785-.143 1-.393-.286-.143-.75.107-.929-.214-.214-.965-1.357-.786-2.071-1.143-.107.107-.322.035-.357.214 1.25 2.071 3.607 3.929 5.464 5.357 1.107 1.322 2.607.322 4.071.643.322-.071.857-.036 1.107.107l-.214.357c.107.036.286-.035.393.036.607.143 1.321-.036 1.786.357-.929.572-2.143.143-3.072-.071-.035-.286.393-.072.322-.393-.786-.214-1.572-.072-2.393-.143 1.571 1.714 4.321.893 6.536 1.25l.321.286c-.036.107-.143.035-.214.035-.429.5-1.036-.25-1.393.215 1.678.393 3.678.464 5.321.393.607-.143 1.25.107 1.75-.215-.785-.143-1.821.036-2.571-.178-.75-.215-1.572.214-2.214-.179 1.5-.464 2.964.286 4.5-.214.785-.036 1.571-.179 2.214.143l-.143.178c-.429 0-.857.179-1.25.286 1.25.321 2.464-.179 3.679 0l.285-.286c-.321-.107-.75-.035-.928-.285.25-.179.5.035.714-.286l3.179-.179c.214-.035.714-.035.678-.285l-2.678-.286c-.5-.143-1.036.143-1.429-.286l.107-.143a35.56 35.56 0 0 0 4.357-.178l.143-.143c-.464-.143-1-.286-1.393-.643 1.679-.357 3.393-.036 5.143-.214l.179-.179c-.786-.214-1.572-.25-2.357-.393-.322-.035-.786-.035-.893-.464 1.571-.036 3.5-.036 5.143-.321.392-.25 1 .285 1.178-.215-1.25-.214-2.928.072-4-.714 2.214 0 4.5-.179 6.607-.536l.286-.285c-1.429-.25-3.107.178-4.107-1l.071-.072c.286.072.75-.143.893.179l2.893-.036-.071-.143h.392c.25-.214.715-.214.715-.607-.465-.286-1-.143-1.572-.357.465-.143 1-.143 1.429-.464.286-.5-.393-.536-.536-.858.107-.071.214-.035.357-.035.393.071.465-.286.536-.536-.464-.321-1.036-.536-1.607-.679-.179.179-.572.179-.822.393zM75.93 87.786c.678-.715 1.571.143 2.464-.036-.786.071-1.607.286-2.464.036zm5.678.714l.107-.179c1.072.072 2.072.072 3.179.215v.071c-1.143.214-2.179.143-3.286-.107zm10.572.964c-2.108.357-4.965.107-7.143 0l-.572-.214c2.572.071 5.179-.357 7.857-.286.215.143.536.143.679.393-.25.322-.571-.107-.821.107zm18.892-8.393c-.464.179-.892.893-1.392.465.178-.643.428-1.5 1.25-1.572.535.107.071.715.142 1.107zm-21 12.143c.286.036.822-.071.965.215-1.893.107-3.965.142-5.715-.465-.285-.107-.428-.464-.107-.678 1.25.071 2.5.071 3.715.214.535-.357 1.25-.036 1.785-.036-.071.215-.821.393-.643.75zm1.072 2.357c-.643 0-1.179.215-1.786.358 0 .071.072.178.179.178.535.143 1.321-.071 1.607.464-.322.215-.857 0-1.072.393.429.322 1.072.215 1.5.215-.428.392-1.214-.143-1.607.535.857.215 1.643.215 2.5.215-.607.5-1.607.428-2.464.535-1.286.072-2.643-.035-3.679-.714.643-.929 1.322-1.964.893-3.214l.286-.215c.857.108 1.786 0 2.571.286l-.5.322.179.178 1.357.179c.143.035.179.143.036.285zM37.857 82.607c-1.678.893-1.25 4.714-1.143 5.357.143.929.393.893 1.286.929 1 .071 2.357-.107 4.357-.072 1.286.036 3.536 0 4.429 1.143 1.535 2 .643 4.072.25 5.893-.25 1.214-.715 2.357.785 3.464 1.393.608 1.965-.964 1.965-1.857 0-2.607.178-3.357-1.286-6.357-.571-1.178-2.893-4.178-2.464-7.071.071-.536.178-.786.393-1.286-4.858-.179-7.179-.893-8.572-.143zm104.357.893c1.393 1.25 1.215 5.286.643 5.929-.536.607-2.286.321-3.036.321-1.357 0-2.75-.179-4.071.143-1.143.286-2.143 1.321-2.571 2.428-.679 1.822.035 4.036-.322 5.929-.143.75-.393 2.464-1.5 2.179-.964-.25-1-1.643-.928-2.429.214-2.143 1.214-4.107 1.928-6.071.857-2.358 2-4.465 1.822-7.036-.072-1-.679-1.357.464-1.393.607-.036 6.75-.714 7.571 0zm-9.321 35c.321 1-.429 1.893-1.107 2.571-.572-.142-1.322-.535-1.643-1.142.286-.822.928-1.608 1.643-2.036.464-.072.893.25 1.107.607zm-20.464 18.214c-.286.572-.108 1.143-.143 1.822.571.535 1.25-.429 1.785-.679-.357-.536-1-1.036-1.642-1.143zM43.214 109.25c.357-.464.036-1.071.036-1.643-.179-.393-.214-1.143-.893-.893-.5.143-1.143.322-1.428.75.285.715.392 1.5 1.035 2.036.429.25.893-.071 1.25-.25zm-3.035-9c-.465-.25-1.036-.464-1.643-.5-.215.643.035 1.464.428 1.857.465-.321 1.107-.821 1.215-1.357zm98.892 5.071c.286.465.786.929 1.286 1.143.322-.393.286-.893.429-1.357l-.107-.321c-.572.178-1.215.107-1.608.535zm7.75-12.535c-1.107 30.428-26.107 54.571-56.821 54.571-30.964 0-56.143-24.357-56.857-55.143 0-1.178.428-1.893 1.928-1.964.929-.071 5.143-.071 6.179-.071.929 0 1.25.25 1.25 2.25 1.036 25.357 21.893 45.607 47.5 45.607 25.179 0 45.786-19.75 47.429-44.5.035-.607.071-2.25 1.071-2.179.857.072 5.857.072 6.893.072 1 .035 1.428.714 1.428 1.357zM36.75 94.464c.214.322.536.572.893.572.428-.036.893-.036 1.107-.465a1.772 1.772 0 0 0-.179-1.285c-.464-.215-1.107-.822-1.571-.179a1.501 1.501 0 0 0-.25 1.357zm.5 11c1.071-1.928 3.036-3.143 4.714-4.893l.072-.214c-1.857-1.107-4.107-1.464-6.143-2.321l-.679-.536c.072.571-.035 1.571.393 1.893.286-.036.107-.357.393-.464.286-.215.571.107.893.107.786.25.5 1.25.821 1.857.036.643.607 1.393.072 1.893-.322.393-.929.607-1.322.5.107.464.215 1.071.322 1.607.035.286.25.571.464.571zm4.179 4.679c.642.214 1.392.893 2.214.464 1-.964.428-2.536.107-3.678-.429-.822-.679-1.75-1.036-2.5-.071.285-.071.571-.214.821-1.107.679-2.429.893-3.571 1.429-.5.214-1.143.142-1.643-.072.143.75.535 1.464.785 2.107.108-.785.965-.821 1.5-1.071.322-.179.715.036.822.393 1.107 1.107-.572 1.893-.607 2.964-.357 1.321.107 2.714.678 3.679-.678-1.572-.035-3.286.965-4.536zm1.785 7.964c1.25-.821 2.465-1.786 3.965-2.107.535.643.964 1.429 1.321 2.107.214-.214.357-.393.607-.571-1-1.679-2.036-3.393-2.928-5.143-.358.036-.858-.107-1.108.107.715.571 1.036 1.286 1.286 2.036-.678.893-1.786 1.178-2.607 1.857-.679.321-1.357.821-2.107.678.357.679.607 1.465 1.143 2-.286-.428.285-.642.428-.964zm6 3.643c.536-.214 1-1.179 1.643-.643.679.893 1.929 1.857 1.679 2.893.25-.25.821-.393.893-.857-1.25-1.322-2.143-2.964-3.393-4.179v.465c-.822.892-1.786 1.678-2.679 2.321-.643.393-1.428 1.179-2.214.786.893 1.678 2.178 2.893 3.214 4.464.25-.036.5-.036.714-.143.286.036.679-.036.893-.143-.214.036-.393-.071-.607-.143l.036-.035-.286-.036c-.857-.857-2.178-1.643-2.143-2.893.465-.428.929-1.107 1.607-1.071.465.5 1 1.071 1.072 1.714.357-.179.714-.357.928-.679-.75-.107-1-1.035-1.464-1.5.036-.142 0-.285.107-.321zm9.107 6.679c-.607-1.179-1.535-2.75-3.107-2.608-2.643 1.072.465 3.75-1.178 5.286-.75.286-1.215-.214-1.715-.678-.25-.643-.75-1.5-.214-2.215-.357.143-.678.429-1 .679l.393 1.357c.821 1 1.857 2.25 3.321 1.679 1.643-1.143.358-3.179.465-4.715.107-.357.428-.464.714-.571.5.143 1 .393 1.286.857.393.679.214 1.536.107 2.214.286-.428 1.214-.535.928-1.285zm2.322 3.785c-.25-.285-.607-.393-1-.357-.393.072-.643.536-.607.893.071.393.25.786.607 1 .428.036.857-.036 1.071-.357.143-.322.215-.893-.071-1.179zm8.75 3.179c-.679-.714-1.5-1.572-2.429-1.822-.678-.107-1.428-.142-1.893.465-.5 1.321.429 2.535 1.25 3.571.072.536.358 1.214-.214 1.607-.286.215-.75.215-1 .036-1.071-.464-1.571-1.607-1.571-2.714-.322.321-.607.643-.715 1 .322 1.071 1.322 2.035 2.322 2.357.821.107 1.928.286 2.428-.536.393-1.536-.714-2.786-1.428-4-.143-.321-.214-.857.178-1.071.286-.179.75-.179 1.036 0 .929.5 1.393 1.357 1.322 2.464.285-.357.571-.857.714-1.357zm7.428 2.893c-1.214-1.072-2.928-1.75-4.5-1.215-1.142.679-2.035 1.822-1.892 3.322.178 1.107.857 2.036 1.785 2.678.893.358 1.965.536 2.893.143.286-.393.572-.928.607-1.5h-.178c-.536.822-1.393 1.072-2.215 1a2.464 2.464 0 0 1-1.642-1.607c-.25-.786-.036-1.678.321-2.321.571-.715 1.393-1.465 2.357-1.25.857.178 1.857.821 2.036 1.785.214-.321.321-.678.428-1.035zm4.786.607L79.5 138.5c.75.893.036 2.071-.036 3.071-.357 1.072-.357 2.393-1.285 3.143.857.179 1.714.357 2.357.393l-.5-.464c.035-1.75.5-3.322.893-4.964.035-.322.5-.572.678-.786zm8.107 5.643c-1.035 1.214-2.75.821-4.107.571l-.357-.286c-.214-.535-.143-1.428.179-1.964.928 0 1.857-.143 2.535.572.036-.429.215-.858.072-1.322-.75.464-1.822.107-2.607-.107 0-.643-.179-1.571.428-2 1.107.214 2.857-.321 3.393 1.036.214-.143.036-.465.179-.679-.108-.286-.036-.714-.429-.643l.036-.035c-1.715.035-3.286-.25-4.893-.465l.357.322c.357 1.607-.179 3.107-.214 4.785.035.572-.429 1.143-.857 1.322 1.785.036 3.714.357 5.428.393.322-.536.822-1.072.857-1.5zM141.5 94.107c.107.607.75.464 1.143.393.464-.143.357-.679.286-1-.215-.286-.572-.393-.965-.357-.393.036-.535.536-.464.964zm-43.214 51.464c0-1.857-.215-3.428-.357-5.321.142-.321-.072-.821.285-1.071-.607 0-1.143.178-1.714.285l.214.107c.893.679.572 1.858.715 2.858.035.214-.072.464-.286.464-1.107-.893-2-2.036-3-3.072-1.036-.392-1.714.036-2.857.072.321.286.928.071 1.178.607.215 1.464.215 3.071.215 4.607-.108.357-.358.572-.679.75.714.143 1.571-.036 2.143-.036-1.572-1-.679-2.928-.929-4.535L93.5 141c1.464 1.5 3 3.036 4.429 4.643h.357v-.072zm4.821-6.892c.572-.358 1.429-.679 2.072-.215-.179-.393-.143-.857-.429-1.178a1.578 1.578 0 0 0-.571.214c-1.608.464-3.25.893-4.893 1.25-.036.393-.179.821.107 1.143.107-.464.607-.572 1-.679.536-.035 1.107-.285 1.5.215l.893 3.678c.25.5.035 1.179-.393 1.429.607.035 1.036-.215 1.607-.215.25-.107.679 0 .75-.321-.286.071-.571-.107-.679-.357-.571-1.107-.642-2.429-.964-3.643-.036-.429-.357-.964 0-1.321zm6.964 3.535c-1-.178-1.071-1.357-1.464-2.035-.286-1.25-1.393-2.536-.714-3.858a4.9 4.9 0 0 0-1.893.75l.5.393c.75 1.75 1.179 3.465 1.786 5.286-.072.179-.322.357-.215.5.643-.429 1.393-.643 2-1.036zm7.822-3.928c-.536.178-1-.036-1.393-.357-1.643-.929-3.179-2.179-4.679-3.072-.392 2.072-.142 4-.285 6.286l-.322.571c.572-.107 1.072-.464 1.607-.678-.321-.179-.607-.607-.5-1.072.679-.821 1.893-1.143 2.893-1.535.429.214.786.714.536 1.214l.107-.179c.822-.035 1.5-.678 2.036-1.178zm.714-3.929c-.25-.393-.678-.393-1-.464-.286-.036-.393.321-.607.393-.071.393-.143.928.286 1.178.285.143.678.143.928-.035.286-.286.465-.608.393-1.072zm6.072-.321c-.215-2.536-1.393-4.822-1.322-7.286-.428.429-1.071.857-1.25 1.321 1 .393 1.072 1.679 1.322 2.643.035.5.392 1.072.107 1.5-1.322-.285-2.465-1.178-3.607-1.785-.25-.143 0-.393 0-.572-.715.286-1.393 1.036-1.893 1.464l.893-.035c1.928.857 3.75 1.964 5.75 2.75zm6.892-8.393c-.107.393-.178.821-.357 1.143-.678.571-1.071 1.678-2.071 1.714-.429-.393-1.357-.786-1.214-1.5.285-.536.678-.964 1.285-1.143a2.025 2.025 0 0 0-.893-.75c0 .714-.821 1.143-1.107 1.464-.464-.178-1.071-.821-1.393-1.357.072-.464.322-.893.75-1.25.5-.464 1.108-.893 1.822-.643a1.853 1.853 0 0 0-1.072-.785l-3 3.25c1.179.214 1.715 1.321 2.679 2.035.464.822 1.786 1.25 1.607 2.465.572-.393.857-.822 1.393-1.25.429-1.143 2.929-1.822 1.571-3.393zm6.429-6.857c-1.071.535-2.536 1-3.929.643-.75-.393-.178-1.358-.535-2l-.215-.358c-2.357-1-3.142 2.179-4.535 3.5v.215c.25-.107.357-.036.678-.072l1.893 1.357c.786.858 2.25 1.25 2.393 2.5.464-.571.857-1.142 1.25-1.75-1.036.572-1.893-.75-2.571-1.071-.036-.536.5-.857.785-1.179 1.679-.035 3.822-.107 4.786-1.785zm1.179-2.679c-.286-.036-.5.072-.75.143-1.608-.679-3.143-1.5-4.679-2.393l-.286-.464c-.285.464-.607.928-.714 1.5l.679-.072c1.642.965 3.5 1.572 4.892 2.858.465-.465.572-1.072.858-1.572zm2.142-5c-.357.607-.964.286-1.464.286-1.321-.679-2.893-.893-3.857-2.143.179-.714.536-1.393 1-1.857-.214-.214-.5-.286-.786-.357-.75 1.714-1.285 3.607-2.321 5.178l.893.393c-.036-.393.178-.643.178-1.036.107-.357.357-.75.75-.785 1.572.571 3.072 1.25 4.5 2.285.107.179.036.536.215.572.25-.893.928-1.643.892-2.536zm2.572-8.75l-.357.322c-1.929 1.035-4.036 1.178-6.107 1.821.107.464.428.964.857 1.143 1.143 1.5 3.214 2.536 3.607 4.428.178-.607.857-1.357.607-1.928-.607.107-1.071-.464-1.464-.964.143-1 .428-2 .928-2.858.5-.321 1.393-.214 1.572.465.357-.715.5-1.679.357-2.429zm-.107-5.178c-2.143-.858-2.536 2.392-4.357 2.5-.429-.179-.465-.643-.536-1.036.107-.75.786-1.5 1.5-1.75-.25-.286-.75-.214-1.107-.286-.429.536-.857 1.143-1 1.822.071.642-.107 1.464.428 1.785 2.322 1.715 2.715-1.928 4.786-2.107.25.179.571.429.679.75.107 1.143-.536 2.072-1.429 2.643l.75.214c.464-.464 1.107-1.107 1.179-1.893.25-1.035-.072-2.035-.893-2.642z" fill="#FFCB05" fill-rule="nonzero"/></g></svg>